<?xml version="1.0" encoding="UTF-8"?>
<svg xmlns="http://www.w3.org/2000/svg" xmlns:xlink="http://www.w3.org/1999/xlink" width="3413px" height="924px" viewBox="0 0 3414 924" version="1.1">
<g id="surface1">
<path style=" stroke:none;fill-rule:nonzero;fill:rgb(0%,0%,0%);fill-opacity:1;" d="M 0 462.265625 L 0 924.535156 L 3.734375 923.734375 C 15.070312 921.332031 140.425781 904.261719 146.960938 904.261719 C 147.628906 904.261719 148.164062 792.496094 148.296875 655.789062 L 148.695312 407.183594 L 222.578125 624.046875 C 263.25 743.28125 299.792969 850.378906 303.925781 862.117188 L 311.261719 883.1875 L 318.59375 882.519531 C 425.015625 871.183594 461.691406 866.785156 468.492188 864.78125 C 470.625 864.117188 470.757812 842.375 470.757812 431.992188 L 470.757812 0 L 324.0625 0 L 323.796875 259.40625 L 323.398438 518.816406 L 230.710938 259.40625 L 138.027344 0 L 0 0 Z M 0 462.265625 "/>
<path style=" stroke:none;fill-rule:nonzero;fill:rgb(0%,0%,0%);fill-opacity:1;" d="M 608.117188 426.121094 L 608.117188 852.246094 L 613.054688 852.246094 C 615.71875 852.246094 644.125 850.113281 676 847.578125 C 796.15625 837.976562 1004.730469 821.570312 1007.128906 821.570312 C 1009.398438 821.570312 1009.53125 818.234375 1009.53125 751.285156 L 1009.53125 681.128906 L 984.59375 682.0625 C 952.320312 683.265625 909.109375 685.796875 825.359375 691.53125 C 788.152344 694.066406 756.8125 696.199219 755.613281 696.199219 C 753.613281 696.199219 753.480469 686.863281 753.480469 589.769531 L 753.480469 483.207031 L 770.550781 482.40625 C 779.886719 481.871094 823.359375 481.070312 867.234375 480.539062 L 946.851562 479.738281 L 946.851562 334.363281 L 903.242188 335.164062 C 879.105469 335.695312 835.628906 336.496094 806.558594 337.03125 L 753.480469 337.832031 L 753.480469 145.375 L 1009.53125 145.375 L 1009.53125 0 L 608.117188 0 Z M 608.117188 426.121094 "/>
<path style=" stroke:none;fill-rule:nonzero;fill:rgb(0%,0%,0%);fill-opacity:1;" d="M 1100.214844 72.6875 L 1100.214844 145.375 L 1249.578125 145.375 L 1249.578125 811.300781 L 1255.980469 810.5 C 1259.445312 809.96875 1292.117188 809.300781 1328.660156 808.765625 L 1394.9375 807.832031 L 1394.9375 145.375 L 1545.636719 145.375 L 1545.636719 0 L 1100.214844 0 Z M 1100.214844 72.6875 "/>
<path style=" stroke:none;fill-rule:nonzero;fill:rgb(0%,0%,0%);fill-opacity:1;" d="M 1636.320312 400.117188 L 1636.320312 800.230469 L 1779.015625 800.230469 L 1779.015625 473.46875 L 1976.386719 473.46875 L 1976.386719 328.09375 L 1779.015625 328.09375 L 1779.015625 145.375 L 2040.398438 145.375 L 2040.398438 0 L 1636.320312 0 Z M 1636.320312 400.117188 "/>
<path style=" stroke:none;fill-rule:nonzero;fill:rgb(0%,0%,0%);fill-opacity:1;" d="M 2129.75 405.183594 L 2129.75 810.5 L 2166.15625 811.433594 C 2208.03125 812.5 2279.511719 815.433594 2332.457031 818.234375 C 2409.402344 822.371094 2496.488281 827.707031 2511.558594 829.039062 L 2520.492188 829.839844 L 2520.492188 757.683594 C 2520.492188 697 2520.226562 685.53125 2518.625 685.53125 C 2517.558594 685.53125 2492.886719 684.0625 2463.679688 682.195312 C 2387.132812 677.527344 2340.058594 674.996094 2305.515625 674.0625 L 2275.109375 673.128906 L 2275.109375 0 L 2129.75 0 Z M 2129.75 405.183594 "/>
<path style=" stroke:none;fill-rule:nonzero;fill:rgb(0%,0%,0%);fill-opacity:1;" d="M 2640.515625 419.320312 L 2640.515625 838.777344 L 2646.25 839.441406 C 2649.316406 839.84375 2667.722656 841.042969 2687.191406 842.242188 C 2706.660156 843.445312 2735.066406 845.578125 2750.402344 847.042969 C 2765.738281 848.378906 2779.476562 849.578125 2780.808594 849.578125 C 2783.078125 849.578125 2783.210938 834.242188 2783.210938 424.789062 L 2783.210938 0 L 2640.515625 0 Z M 2640.515625 419.320312 "/>
<path style=" stroke:none;fill-rule:nonzero;fill:rgb(0%,0%,0%);fill-opacity:1;" d="M 2988.71875 216.863281 L 3072.601562 433.726562 L 2979.914062 644.851562 C 2928.972656 761.019531 2887.230469 856.246094 2887.230469 856.648438 C 2887.230469 857.449219 2894.164062 858.382812 2953.242188 864.917969 C 2982.582031 868.117188 3014.589844 871.984375 3024.457031 873.585938 C 3034.324219 875.050781 3042.859375 875.851562 3043.394531 875.320312 C 3043.929688 874.652344 3067.664062 820.101562 3096.070312 753.816406 C 3124.476562 687.664062 3148.214844 633.917969 3148.613281 634.449219 C 3149.148438 635.117188 3172.21875 694.066406 3199.824219 765.554688 C 3227.5625 837.042969 3250.769531 896.125 3251.433594 896.792969 C 3252.636719 898.125 3324.117188 910.53125 3374.660156 918.265625 C 3391.59375 920.800781 3407.332031 923.199219 3409.867188 923.734375 C 3414 924.398438 3414.265625 924.265625 3413.734375 921.332031 C 3413.332031 919.597656 3372.925781 812.367188 3323.984375 682.863281 C 3275.039062 553.359375 3234.363281 445.328125 3233.566406 442.792969 C 3232.363281 438.394531 3237.832031 425.054688 3322.648438 221.398438 C 3372.390625 102.164062 3413.332031 3.601562 3413.601562 2.265625 C 3414.265625 0.132812 3410.132812 0 3334.785156 0.265625 L 3255.167969 0.667969 L 3205.691406 119.632812 C 3178.355469 185.121094 3155.816406 238.734375 3155.417969 238.734375 C 3155.015625 238.734375 3136.878906 193.253906 3115.273438 137.640625 C 3093.671875 82.15625 3072.734375 28.40625 3068.867188 18.273438 L 3061.664062 0 L 2904.96875 0 Z M 2988.71875 216.863281 "/>
</g>
</svg>
