<?xml version="1.0" encoding="UTF-8"?>
<!DOCTYPE svg PUBLIC "-//W3C//DTD SVG 1.1//EN" "http://www.w3.org/Graphics/SVG/1.1/DTD/svg11.dtd">
<svg xmlns="http://www.w3.org/2000/svg" version="1.1" width="1280px" height="346px" style="shape-rendering:geometricPrecision; text-rendering:geometricPrecision; image-rendering:optimizeQuality; fill-rule:evenodd; clip-rule:evenodd" xmlns:xlink="http://www.w3.org/1999/xlink">
<g><path style="opacity:0.995" fill="#d81e25" d="M -0.5,-0.5 C 16.8333,-0.5 34.1667,-0.5 51.5,-0.5C 74.3167,63.1413 97.1501,126.808 120,190.5C 120.5,126.834 120.667,63.1675 120.5,-0.5C 139.167,-0.5 157.833,-0.5 176.5,-0.5C 176.667,107.167 176.5,214.834 176,322.5C 172.646,323.811 169.146,324.644 165.5,325C 148.833,326.9 132.166,328.733 115.5,330.5C 96.0309,272.093 76.3642,213.759 56.5,155.5C 56.0133,154.527 55.5133,153.527 55,152.5C 54.168,214.335 54.3347,276.001 55.5,337.5C 38.4735,339.98 21.4735,342.647 4.5,345.5C 2.83333,345.5 1.16667,345.5 -0.5,345.5C -0.5,230.167 -0.5,114.833 -0.5,-0.5 Z"/></g>
<g><path style="opacity:0.99" fill="#d71f26" d="M 227.5,-0.5 C 277.833,-0.5 328.167,-0.5 378.5,-0.5C 378.5,17.5 378.5,35.5 378.5,53.5C 346.5,53.5 314.5,53.5 282.5,53.5C 282.5,77.5 282.5,101.5 282.5,125.5C 306.503,125.357 330.503,125.024 354.5,124.5C 354.5,142.833 354.5,161.167 354.5,179.5C 330.491,179.357 306.491,179.691 282.5,180.5C 282.5,206.833 282.5,233.167 282.5,259.5C 314.478,257.418 346.478,255.751 378.5,254.5C 378.5,272.167 378.5,289.833 378.5,307.5C 328.17,311.222 277.837,314.889 227.5,318.5C 227.5,212.167 227.5,105.833 227.5,-0.5 Z"/></g>
<g><path style="opacity:0.989" fill="#d81f26" d="M 411.5,-0.5 C 467.5,-0.5 523.5,-0.5 579.5,-0.5C 579.5,17.5 579.5,35.5 579.5,53.5C 560.5,53.5 541.5,53.5 522.5,53.5C 522.5,136.5 522.5,219.5 522.5,302.5C 504.143,302.234 485.81,302.567 467.5,303.5C 467.5,220.167 467.5,136.833 467.5,53.5C 448.833,53.5 430.167,53.5 411.5,53.5C 411.5,35.5 411.5,17.5 411.5,-0.5 Z"/></g>
<g><path style="opacity:0.995" fill="#d81f25" d="M 612.5,-0.5 C 663.167,-0.5 713.833,-0.5 764.5,-0.5C 764.5,17.5 764.5,35.5 764.5,53.5C 731.833,53.5 699.167,53.5 666.5,53.5C 666.5,76.1667 666.5,98.8333 666.5,121.5C 691.167,121.5 715.833,121.5 740.5,121.5C 740.5,139.833 740.5,158.167 740.5,176.5C 715.833,176.5 691.167,176.5 666.5,176.5C 666.5,217.5 666.5,258.5 666.5,299.5C 648.5,299.5 630.5,299.5 612.5,299.5C 612.5,199.5 612.5,99.5 612.5,-0.5 Z"/></g>
<g><path style="opacity:0.983" fill="#d81e26" d="M 797.5,-0.5 C 815.833,-0.5 834.167,-0.5 852.5,-0.5C 852.5,83.5 852.5,167.5 852.5,251.5C 883.185,252.403 913.852,253.736 944.5,255.5C 944.5,273.833 944.5,292.167 944.5,310.5C 895.58,306.685 846.58,304.352 797.5,303.5C 797.5,202.167 797.5,100.833 797.5,-0.5 Z"/></g>
<g><path style="opacity:0.997" fill="#d81f25" d="M 989.5,-0.5 C 1007.5,-0.5 1025.5,-0.5 1043.5,-0.5C 1043.5,105.5 1043.5,211.5 1043.5,317.5C 1025.79,316.431 1008.12,315.097 990.5,313.5C 989.5,208.835 989.167,104.169 989.5,-0.5 Z"/></g>
<g><path style="opacity:0.992" fill="#d81e25" d="M 1088.5,-0.5 C 1108.17,-0.5 1127.83,-0.5 1147.5,-0.5C 1159.16,28.8163 1170.82,58.1496 1182.5,87.5C 1195.38,58.4057 1207.71,29.0724 1219.5,-0.5C 1239.5,-0.5 1259.5,-0.5 1279.5,-0.5C 1279.5,0.5 1279.5,1.5 1279.5,2.5C 1256.47,56.0713 1233.81,109.905 1211.5,164C 1234.08,223.643 1256.75,283.143 1279.5,342.5C 1279.5,343.5 1279.5,344.5 1279.5,345.5C 1277.83,345.5 1276.17,345.5 1274.5,345.5C 1255.92,342.402 1237.25,339.068 1218.5,335.5C 1205.39,302.954 1192.56,270.287 1180,237.5C 1166.67,267.331 1153.84,297.331 1141.5,327.5C 1121.45,325.328 1101.45,322.828 1081.5,320C 1104.56,267.216 1127.89,214.549 1151.5,162C 1130.2,107.944 1109.2,53.7777 1088.5,-0.5 Z"/></g>
<g><path style="opacity:0.063" fill="#df1f1f" d="M 56.5,155.5 C 55.5009,215.998 55.1676,276.664 55.5,337.5C 54.3347,276.001 54.168,214.335 55,152.5C 55.5133,153.527 56.0133,154.527 56.5,155.5 Z"/></g>
</svg>
