<?xml version="1.0" encoding="UTF-8"?>
<svg version="1.1" xmlns="http://www.w3.org/2000/svg" width="1000" height="1000">
<path d="M0 0 C330 0 660 0 1000 0 C1000 330 1000 660 1000 1000 C670 1000 340 1000 0 1000 C0 670 0 340 0 0 Z " fill="#FEAD00" transform="translate(0,0)"/>
<path d="M0 0 C0.9075 0.309375 1.815 0.61875 2.75 0.9375 C5.4233857 2.19993214 6.50185352 3.47680592 8 6 C8 6.66 8 7.32 8 8 C8.66 8 9.32 8 10 8 C13.18329165 13.96867185 13.87564006 19.27392967 13 26 C12.07725955 28.96696543 11.04691289 31.63720549 9 34 C6.859375 34.7109375 6.859375 34.7109375 5 35 C5 35.66 5 36.32 5 37 C4.236875 37.268125 3.47375 37.53625 2.6875 37.8125 C0.04759504 38.76970832 0.04759504 38.76970832 -1.2890625 40.375 C-3.62184845 42.59061405 -6.18190022 43.7699509 -9.0625 45.1875 C-10.12597656 45.71730469 -11.18945312 46.24710938 -12.28515625 46.79296875 C-15 48 -15 48 -17 48 C-17 48.66 -17 49.32 -17 50 C-18.03060547 50.39832031 -18.03060547 50.39832031 -19.08203125 50.8046875 C-19.98308594 51.15789063 -20.88414062 51.51109375 -21.8125 51.875 C-23.15248047 52.39707031 -23.15248047 52.39707031 -24.51953125 52.9296875 C-27.17711591 53.98832155 -27.17711591 53.98832155 -30 56 C-30.99 56 -31.98 56 -33 56 C-33 56.66 -33 57.32 -33 58 C-34.134375 58.268125 -35.26875 58.53625 -36.4375 58.8125 C-37.613125 59.204375 -38.78875 59.59625 -40 60 C-40.33 60.99 -40.66 61.98 -41 63 C-43.625 64.02734375 -43.625 64.02734375 -47 64.9375 C-51.08045467 66.1001623 -54.91976044 67.29816588 -58.75 69.125 C-62.45549629 70.87557453 -66.01425592 71.7189362 -70.01953125 72.51171875 C-72.70452502 73.17369946 -74.67087573 74.52299437 -77 76 C-82.36320126 78.45852943 -87.65397046 80.29363705 -93.4375 81.4296875 C-97.94792228 82.43353148 -102.34703538 83.85009744 -106.765625 85.1953125 C-109.6805851 85.92053204 -112.01942073 86.16807778 -115 86 C-115 86.66 -115 87.32 -115 88 C-138.88106466 93.7228382 -162.62682245 98.01789695 -187 101 C-188.29325195 101.17265381 -189.58650391 101.34530762 -190.91894531 101.52319336 C-238.92063009 107.4946758 -289.56264843 104.5674967 -336.12255859 91.77832031 C-339.42030584 90.8863113 -342.73316235 90.08089788 -346.05639648 89.29052734 C-352.09850029 87.8507757 -357.89038155 86.11577044 -363.66796875 83.83203125 C-366.09530031 82.96599838 -368.4647511 82.44580753 -371 82 C-371 81.34 -371 80.68 -371 80 C-372.1446875 79.89816406 -373.289375 79.79632812 -374.46875 79.69140625 C-379.11219201 79.110976 -383.17259866 77.66445368 -387.5 75.9375 C-388.22703125 75.65583984 -388.9540625 75.37417969 -389.703125 75.08398438 C-391.47191255 74.39741552 -393.23643041 73.69986318 -395 73 C-395 72.34 -395 71.68 -395 71 C-395.5775 70.855625 -396.155 70.71125 -396.75 70.5625 C-398.83333333 70.04166667 -400.91666667 69.52083333 -403 69 C-403 68.34 -403 67.68 -403 67 C-404.299375 66.87625 -405.59875 66.7525 -406.9375 66.625 C-409.15234375 66.4140625 -409.15234375 66.4140625 -411 66 C-411.33 65.34 -411.66 64.68 -412 64 C-414.3393969 62.80227599 -416.66539007 61.69435655 -419.0625 60.625 C-420.430058 60.00211487 -421.7972487 59.3784227 -423.1640625 58.75390625 C-423.82438477 58.45371582 -424.48470703 58.15352539 -425.16503906 57.84423828 C-428.48776129 56.31550312 -431.74249069 54.66199455 -435 53 C-435 52.34 -435 51.68 -435 51 C-435.5775 50.731875 -436.155 50.46375 -436.75 50.1875 C-440.4578827 48.23056191 -442.64312738 47.07061787 -444 43 C-444.66 42.67 -445.32 42.34 -446 42 C-447.02273507 38.37861734 -447.10762232 34.93265244 -447.0625 31.1875 C-447.05347656 30.21167969 -447.04445313 29.23585938 -447.03515625 28.23046875 C-447.02355469 27.49441406 -447.01195312 26.75835938 -447 26 C-446.34 26 -445.68 26 -445 26 C-445.0825 25.278125 -445.165 24.55625 -445.25 23.8125 C-444.92057083 20.10642187 -443.55929605 18.63241879 -441 16 C-440.01 15.67 -439.02 15.34 -438 15 C-437.67 14.34 -437.34 13.68 -437 13 C-436.34 13 -435.68 13 -435 13 C-435 12.34 -435 11.68 -435 11 C-426.72893268 8.48804622 -417.47003914 8.96422381 -409.84375 12.9765625 C-409.2353125 13.31429687 -408.626875 13.65203125 -408 14 C-406.33805262 14.67834587 -404.67401097 15.35199575 -403 16 C-403 16.66 -403 17.32 -403 18 C-402.29617188 18.10441406 -401.59234375 18.20882812 -400.8671875 18.31640625 C-397.61305662 19.09225489 -395.0769021 20.36954161 -392.125 21.9375 C-387.76377469 24.1827234 -383.77472771 25.91483461 -379 27 C-379 27.66 -379 28.32 -379 29 C-378.236875 29.144375 -377.47375 29.28875 -376.6875 29.4375 C-374 30 -374 30 -371 31 C-371 31.66 -371 32.32 -371 33 C-368.36 33.33 -365.72 33.66 -363 34 C-363 34.66 -363 35.32 -363 36 C-361.7315625 36.185625 -361.7315625 36.185625 -360.4375 36.375 C-356.84763202 37.02770327 -353.49175125 37.95247463 -350 39 C-350 39.66 -350 40.32 -350 41 C-348.948125 41.09539063 -347.89625 41.19078125 -346.8125 41.2890625 C-339.59118061 42.19331383 -332.61948154 44.38976627 -325.61328125 46.296875 C-283.26959422 57.59496253 -238.44986794 60.0134463 -195 55 C-193.0208478 54.7915293 -191.04168075 54.58319953 -189.0625 54.375 C-161.64571248 51.35178886 -134.16447579 45.14161708 -108.11132812 36.06762695 C-102.16032701 34.00006071 -96.15147955 32.37749165 -90.0390625 30.859375 C-87.07839572 30.12983675 -87.07839572 30.12983675 -84.8359375 28.890625 C-83 28 -83 28 -79 28 C-79 27.34 -79 26.68 -79 26 C-77.95042114 25.53944214 -77.95042114 25.53944214 -76.87963867 25.06958008 C-73.64860169 23.65129041 -70.41804899 22.23190083 -67.1875 20.8125 C-66.08728516 20.32974609 -64.98707031 19.84699219 -63.85351562 19.34960938 C-57.69074241 16.64089784 -51.54616914 13.89919632 -45.4309082 11.0847168 C-38.51789332 8 -38.51789332 8 -35 8 C-35 7.34 -35 6.68 -35 6 C-32.44113496 4.67997444 -29.87832932 3.36886218 -27.3125 2.0625 C-26.59126953 1.68931641 -25.87003906 1.31613281 -25.12695312 0.93164062 C-16.31424155 -3.5350762 -9.17648074 -4.41830554 0 0 Z " fill="#FEFEFB" transform="translate(867,654)"/>
<path d="M0 0 C1.30324219 -0.01836914 1.30324219 -0.01836914 2.6328125 -0.03710938 C8.18520256 -0.04961476 12.9207925 0.61972152 18.25 2.1875 C18.25 2.8475 18.25 3.5075 18.25 4.1875 C19.9825 4.5278125 19.9825 4.5278125 21.75 4.875 C26.42455966 6.03529249 30.53295555 8.10314397 34.25 11.1875 C34.25 11.8475 34.25 12.5075 34.25 13.1875 C34.8275 13.249375 35.405 13.31125 36 13.375 C39.17448483 14.52134174 40.37848575 16.44706842 42.25 19.1875 C42.25 19.8475 42.25 20.5075 42.25 21.1875 C43.735 21.6825 43.735 21.6825 45.25 22.1875 C47.36289923 24.93426899 48.76061914 28.06978729 50.25 31.1875 C50.72308594 32.13367188 51.19617188 33.07984375 51.68359375 34.0546875 C57.17324166 46.77574131 57.8673333 63.37044002 53.25 76.5 C50.42485127 82.52266662 46.72664053 88.25627787 42.25 93.1875 C41.59 93.1875 40.93 93.1875 40.25 93.1875 C40.0025 93.80625 39.755 94.425 39.5 95.0625 C38.04371361 97.53818687 36.87187494 98.13875002 34.25 99.1875 C34.25 99.8475 34.25 100.5075 34.25 101.1875 C29.68439199 105.24581824 26.43330858 107.53101714 20.25 107.1875 C20.25 107.8475 20.25 108.5075 20.25 109.1875 C12.5896415 112.04163245 5.75174656 112.56755353 -2.375 112.375 C-4.02435547 112.35469727 -4.02435547 112.35469727 -5.70703125 112.33398438 C-8.38855332 112.299008 -11.06900073 112.24993072 -13.75 112.1875 C-13.75 111.5275 -13.75 110.8675 -13.75 110.1875 C-14.843125 110.14625 -15.93625 110.105 -17.0625 110.0625 C-27.11814422 108.82791023 -35.66832002 101.83864579 -41.75 94.1875 C-42.45125 93.713125 -43.1525 93.23875 -43.875 92.75 C-46.44767075 90.60610771 -46.90353067 88.36175998 -47.75 85.1875 C-48.41 85.1875 -49.07 85.1875 -49.75 85.1875 C-50.08 83.8675 -50.41 82.5475 -50.75 81.1875 C-51.41 81.1875 -52.07 81.1875 -52.75 81.1875 C-52.95496094 80.35605469 -53.15992188 79.52460938 -53.37109375 78.66796875 C-53.64050781 77.58128906 -53.90992188 76.49460937 -54.1875 75.375 C-54.45433594 74.29605469 -54.72117188 73.21710938 -54.99609375 72.10546875 C-55.51077412 70.1134157 -56.09937175 68.13938476 -56.75 66.1875 C-56.83143855 64.56030518 -56.8575302 62.92998281 -56.84765625 61.30078125 C-56.84443359 60.36298828 -56.84121094 59.42519531 -56.83789062 58.45898438 C-56.82532227 56.99428711 -56.82532227 56.99428711 -56.8125 55.5 C-56.80798828 54.51193359 -56.80347656 53.52386719 -56.79882812 52.50585938 C-56.78704303 50.06634526 -56.77059011 47.62695311 -56.75 45.1875 C-56.09 45.1875 -55.43 45.1875 -54.75 45.1875 C-54.6675 44.07375 -54.585 42.96 -54.5 41.8125 C-53.21601437 31.61295218 -48.37768146 23.05136047 -40.4609375 16.62109375 C-38.56756544 15.09607085 -38.56756544 15.09607085 -36.4375 12.6875 C-29.86731227 6.57569746 -22.38229112 3.29256748 -13.75 1.1875 C-13.13656738 1.01476562 -12.52313477 0.84203125 -11.89111328 0.6640625 C-7.97681373 -0.20717042 -3.99397253 0.00291106 0 0 Z " fill="#FEFEFC" transform="translate(221.75,346.8125)"/>
<path d="M0 0 C1.65817749 -0.00471313 1.65817749 -0.00471313 3.34985352 -0.00952148 C13.1886306 0.13352788 21.18300877 2.02900439 30 6.4375 C30 7.0975 30 7.7575 30 8.4375 C30.66 8.4375 31.32 8.4375 32 8.4375 C32 9.0975 32 9.7575 32 10.4375 C32.99 10.4375 33.98 10.4375 35 10.4375 C35 11.0975 35 11.7575 35 12.4375 C35.5775 12.685 36.155 12.9325 36.75 13.1875 C39.32939979 14.62049988 41.06121592 16.22174676 43 18.4375 C43 19.0975 43 19.7575 43 20.4375 C43.66 20.4375 44.32 20.4375 45 20.4375 C48 26.1875 48 26.1875 48 28.4375 C48.66 28.4375 49.32 28.4375 50 28.4375 C51.0519166 31.09233712 52.04449662 33.74745669 53 36.4375 C53.28617188 37.21222656 53.57234375 37.98695313 53.8671875 38.78515625 C57.77419051 50.82244647 57.38162392 64.59668299 53 76.4375 C52.34 76.4375 51.68 76.4375 51 76.4375 C50.67 79.0775 50.34 81.7175 50 84.4375 C49.34 84.4375 48.68 84.4375 48 84.4375 C47.505 85.9225 47.505 85.9225 47 87.4375 C46.0246803 88.46158568 45.01801357 89.45584406 44 90.4375 C43.319375 91.345 42.63875 92.2525 41.9375 93.1875 C38.34735437 97.5323309 33.70658806 100.41991276 29 103.4375 C28.26523437 103.91574219 27.53046875 104.39398438 26.7734375 104.88671875 C17.5324699 110.48170459 8.18815214 111.69148553 -2.4375 111.75 C-3.30221924 111.75555908 -4.16693848 111.76111816 -5.05786133 111.7668457 C-9.51264627 111.71596121 -12.93312648 111.42704964 -17 109.4375 C-18.43498057 108.99180586 -19.87247382 108.554112 -21.3125 108.125 C-28.49090943 105.75207064 -34.47935743 101.54409438 -40 96.4375 C-40 95.7775 -40 95.1175 -40 94.4375 C-40.66 94.4375 -41.32 94.4375 -42 94.4375 C-46.48686765 89.0444177 -50.35821628 82.94411545 -53 76.4375 C-53.2990625 75.71046875 -53.598125 74.9834375 -53.90625 74.234375 C-56.08274236 67.82581417 -56.31180694 61.51740083 -56.375 54.8125 C-56.38885742 53.92989502 -56.40271484 53.04729004 -56.41699219 52.13793945 C-56.35341887 43.17995686 -53.47358079 35.84995781 -49.5 27.9375 C-49.20480469 27.31875 -48.90960937 26.7 -48.60546875 26.0625 C-47.8169197 24.47845434 -46.91527257 22.95186006 -46 21.4375 C-45.01 21.1075 -44.02 20.7775 -43 20.4375 C-42.71125 19.86 -42.4225 19.2825 -42.125 18.6875 C-39.55308471 13.54366941 -34.82646348 10.33337809 -30 7.4375 C-29.34 7.4375 -28.68 7.4375 -28 7.4375 C-28 6.7775 -28 6.1175 -28 5.4375 C-26.64652311 4.97713371 -25.292173 4.51933463 -23.9375 4.0625 C-23.18339844 3.80726563 -22.42929687 3.55203125 -21.65234375 3.2890625 C-20.77707031 3.00804687 -19.90179687 2.72703125 -19 2.4375 C-17.99066406 2.08300781 -16.98132813 1.72851562 -15.94140625 1.36328125 C-10.72552846 -0.09702385 -5.37980626 0.01251212 0 0 Z " fill="#FEFEFC" transform="translate(824,347.5625)"/>
<path d="M0 0 C1.32 0.33 2.64 0.66 4 1 C4 1.99 4 2.98 4 4 C5.134375 3.814375 6.26875 3.62875 7.4375 3.4375 C9.2009375 3.2209375 9.2009375 3.2209375 11 3 C11.33 3.33 11.66 3.66 12 4 C13.134375 3.95875 14.26875 3.9175 15.4375 3.875 C16.613125 3.91625 17.78875 3.9575 19 4 C21.1519437 7.22791555 21.20086443 8.28400809 21 12 C15.25 12.125 15.25 12.125 13 11 C13 11.99 13 12.98 13 14 C15.31 14 17.62 14 20 14 C19.67 14.66 19.34 15.32 19 16 C17.22265625 16.484375 17.22265625 16.484375 15.0625 16.75 C14.35222656 16.84796875 13.64195312 16.9459375 12.91015625 17.046875 C11 17 11 17 9 15 C9 14.34 9 13.68 9 13 C8.67 13.495 8.34 13.99 8 14.5 C5.27728753 16.54203435 3.21154367 16.42631769 -0.12109375 16.28515625 C-2 16 -2 16 -4.0625 14.8125 C-5.38135516 12.26271335 -4.7975116 10.68253902 -4 8 C-4.99 7.67 -5.98 7.34 -7 7 C-7 9.97 -7 12.94 -7 16 C-7.66 16 -8.32 16 -9 16 C-9.05422947 14.5629191 -9.09289723 13.12524538 -9.125 11.6875 C-9.14820313 10.88699219 -9.17140625 10.08648438 -9.1953125 9.26171875 C-9 7 -9 7 -7 4 C-3.875 3.8125 -3.875 3.8125 -1 4 C-0.67 2.68 -0.34 1.36 0 0 Z " fill="#F1C764" transform="translate(880,957)"/>
<path d="M0 0 C6 0 6 0 8 1 C8.72159424 2.64363134 9.39351421 4.31050386 10 6 C10.33 4.02 10.66 2.04 11 0 C12.98 0 14.96 0 17 0 C17 1.98 17 3.96 17 6 C18.918125 5.938125 18.918125 5.938125 20.875 5.875 C23.0546875 5.8046875 23.0546875 5.8046875 25 6 C27 8 27 8 27.1953125 9.9453125 C27.13020833 11.96354167 27.06510417 13.98177083 27 16 C24.23749964 17.38125018 22.05268901 17.19079306 19 17 C16.14206684 14.14206684 16.59200059 11.85334416 16.375 7.875 C16.30023437 6.59367188 16.22546875 5.31234375 16.1484375 3.9921875 C16.09945312 3.00476563 16.05046875 2.01734375 16 1 C15.34 1 14.68 1 14 1 C14 6.28 14 11.56 14 17 C13.01 17 12.02 17 11 17 C8.8125 14 8.8125 14 7 11 C6.34 13.31 5.68 15.62 5 18 C4.01 17.67 3.02 17.34 2 17 C2 17.66 2 18.32 2 19 C2.99 19.33 3.98 19.66 5 20 C3.68 20 2.36 20 1 20 C0.67 13.4 0.34 6.8 0 0 Z " fill="#E7B53C" transform="translate(842,956)"/>
<path d="M0 0 C0.66 0 1.32 0 2 0 C2 0.66 2 1.32 2 2 C6.29 2 10.58 2 15 2 C15 2.66 15 3.32 15 4 C15.99 4 16.98 4 18 4 C18 4.66 18 5.32 18 6 C17.01 6 16.02 6 15 6 C15 8.31 15 10.62 15 13 C15.99 13 16.98 13 18 13 C18 13.66 18 14.32 18 15 C17.01 15.495 17.01 15.495 16 16 C16.66 16.66 17.32 17.32 18 18 C16.04196493 18.05389087 14.08351091 18.09274217 12.125 18.125 C11.03445313 18.14820313 9.94390625 18.17140625 8.8203125 18.1953125 C6 18 6 18 4 16 C5.98 15.67 7.96 15.34 10 15 C10 14.34 10 13.68 10 13 C9.34 13.66 8.68 14.32 8 15 C2.66666667 15.33333333 2.66666667 15.33333333 0 14 C0 9.38 0 4.76 0 0 Z " fill="#D7A12A" transform="translate(946,958)"/>
<path d="M0 0 C0.75410156 0.00451172 1.50820313 0.00902344 2.28515625 0.01367188 C4.14847127 0.02546501 6.01174555 0.04340058 7.875 0.0625 C7.545 0.7225 7.215 1.3825 6.875 2.0625 C6.64327173 4.60865009 6.45605471 7.13646225 6.3125 9.6875 C6.26931641 10.39390625 6.22613281 11.1003125 6.18164062 11.828125 C6.07555249 13.57268537 5.97477111 15.31756697 5.875 17.0625 C4.885 17.0625 3.895 17.0625 2.875 17.0625 C2.875 14.4225 2.875 11.7825 2.875 9.0625 C2.215 9.0625 1.555 9.0625 0.875 9.0625 C0.936875 10.01125 0.99875 10.96 1.0625 11.9375 C1.000625 12.96875 0.93875 14 0.875 15.0625 C-2.21388522 17.12175681 -2.83435927 17.3015374 -6.3125 17.1875 C-7.570625 17.14625 -8.82875 17.105 -10.125 17.0625 C-10.125 16.4025 -10.125 15.7425 -10.125 15.0625 C-7.485 14.7325 -4.845 14.4025 -2.125 14.0625 C-2.125 13.0725 -2.125 12.0825 -2.125 11.0625 C-4.765 10.4025 -7.405 9.7425 -10.125 9.0625 C-10.92453138 5.77553767 -11.22158936 4.35226808 -10.125 1.0625 C-6.93675432 -0.53162284 -3.49603338 -0.03924735 0 0 Z " fill="#E4AA2A" transform="translate(938.125,955.9375)"/>
<path d="M0 0 C0.8156543 0.0707373 1.63130859 0.14147461 2.47167969 0.21435547 C15.40917136 1.18577705 28.33540338 1.15128253 41.30371094 1.13037109 C45.19991045 1.12506817 49.09599175 1.13031215 52.9921875 1.13671875 C70.01878744 1.14075387 86.98991051 0.73366201 104 0 C94.99855857 5.02905329 83.5237225 4.29734764 73.53125 4.265625 C72.16141695 4.26697856 70.79158437 4.26892477 69.42175293 4.27142334 C66.56432477 4.27435018 63.7070227 4.27016192 60.84960938 4.26074219 C57.25049207 4.24943437 53.65167323 4.25605954 50.05256653 4.26761627 C24.77628864 4.33667318 24.77628864 4.33667318 12.21875 3.109375 C11.02529968 2.99314789 11.02529968 2.99314789 9.80773926 2.87457275 C6.1797366 2.45849881 3.12474676 1.95655957 0 0 Z " fill="#E9B540" transform="translate(576,755)"/>
<path d="M0 0 C1.98 0 3.96 0 6 0 C6 1.32 6 2.64 6 4 C6.81855469 3.9285376 7.63710938 3.8570752 8.48046875 3.78344727 C22.64250624 2.71551175 36.80607228 2.89000769 51 2.9375 C53.62499915 2.94252563 56.24999922 2.94708665 58.875 2.95117188 C65.25002065 2.96209188 71.62500586 2.97874552 78 3 C78 3.33 78 3.66 78 4 C62.72562404 4.96332967 47.47773634 5.21730863 32.17480469 5.24023438 C28.26996634 5.24995032 24.36565357 5.28109741 20.4609375 5.3125 C4.74657429 5.37649447 -10.47114599 4.44613417 -26 2 C-26 1.67 -26 1.34 -26 1 C-17.42 1 -8.84 1 0 1 C0 0.67 0 0.34 0 0 Z " fill="#FCF9D9" transform="translate(594,752)"/>
<path d="M0 0 C0.66 0 1.32 0 2 0 C2.13277344 0.99902344 2.26554688 1.99804688 2.40234375 3.02734375 C2.57894531 4.31769531 2.75554688 5.60804688 2.9375 6.9375 C3.11152344 8.22527344 3.28554688 9.51304687 3.46484375 10.83984375 C3.66162423 13.85466313 3.66162423 13.85466313 5 15 C7.67058851 15.14115161 10.32432238 15.04247107 13 15 C13.33 13.35 13.66 11.7 14 10 C14.33 10 14.66 10 15 10 C15 11.98 15 13.96 15 16 C15.66 16 16.32 16 17 16 C17 13.03 17 10.06 17 7 C18.65 7 20.3 7 22 7 C21.34 7.66 20.68 8.32 20 9 C19.3574765 11.06874034 19.3574765 11.06874034 19 13 C19.99 13.33 20.98 13.66 22 14 C22 14.66 22 15.32 22 16 C25.3 15.67 28.6 15.34 32 15 C32.33 12.69 32.66 10.38 33 8 C33.33 8 33.66 8 34 8 C34.125 14.625 34.125 14.625 33 18 C21.45 18 9.9 18 -2 18 C-2 17.34 -2 16.68 -2 16 C-1.34 16 -0.68 16 0 16 C0 10.72 0 5.44 0 0 Z " fill="#AC7710" transform="translate(856,957)"/>
<path d="M0 0 C1.39603943 0.41597563 2.79181199 0.83284683 4.1875 1.25 C5.0738916 1.51441895 5.9602832 1.77883789 6.87353516 2.05126953 C8.89212307 2.66381308 10.9063363 3.29105397 12.91479492 3.93603516 C22.09216982 6.86384943 31.35172655 8.91965918 40.7734375 10.88671875 C41.92328125 11.13292969 43.073125 11.37914062 44.2578125 11.6328125 C45.80686279 11.95596436 45.80686279 11.95596436 47.38720703 12.28564453 C50 13 50 13 53 15 C44.9295642 14.38541771 36.98614219 13.30774665 29 12 C29 11.34 29 10.68 29 10 C27.9275 10.04125 26.855 10.0825 25.75 10.125 C22.0968547 10.00322849 21.08179811 9.54089905 18 8 C15.66796188 7.9222654 13.33160941 7.91032272 11 8 C11 7.01 11 6.02 11 5 C8.52733235 5.34444881 8.52733235 5.34444881 6 6 C5.67 6.66 5.34 7.32 5 8 C2.23723823 7.47731534 -0.3260876 6.89130413 -3 6 C-3 5.34 -3 4.68 -3 4 C-2.01 3.67 -1.02 3.34 0 3 C0 2.01 0 1.02 0 0 Z " fill="#F2AF1A" transform="translate(499,736)"/>
<path d="M0 0 C-4.11974275 1.9488198 -8.24667315 3.88193938 -12.375 5.8125 C-14.10943359 6.63331055 -14.10943359 6.63331055 -15.87890625 7.47070312 C-22.4780012 10.54655247 -28.94138672 13.18743526 -36 15 C-36 15.66 -36 16.32 -36 17 C-38.95670218 18.00486895 -41.91561577 19.00306024 -44.875 20 C-45.71675781 20.28617188 -46.55851563 20.57234375 -47.42578125 20.8671875 C-48.23144531 21.13789062 -49.03710938 21.40859375 -49.8671875 21.6875 C-50.61081543 21.93886719 -51.35444336 22.19023438 -52.12060547 22.44921875 C-54 23 -54 23 -56 23 C-56 22.34 -56 21.68 -56 21 C-52.36576791 18.67409146 -49.22911669 18.83734167 -45 19 C-44.67 18.01 -44.34 17.02 -44 16 C-42.68 16 -41.36 16 -40 16 C-39.67 15.01 -39.34 14.02 -39 13 C-36.50548587 10.50548587 -35.32610265 10.01881361 -31.75 9.8125 C-30.8425 9.874375 -29.935 9.93625 -29 10 C-28.67 9.34 -28.34 8.68 -28 8 C-25.66752239 7.66073053 -23.33414529 7.32759934 -21 7 C-20.34 6.34 -19.68 5.68 -19 5 C-16.67724823 4.59952556 -14.34260643 4.2602896 -12 4 C-12 3.34 -12 2.68 -12 2 C-10.68 2 -9.36 2 -8 2 C-8 1.34 -8 0.68 -8 0 C-4.90645403 -0.99435406 -3.09720845 -0.87840996 0 0 Z " fill="#EBAC23" transform="translate(824,665)"/>
<path d="M0 0 C5.94 0.33 11.88 0.66 18 1 C18 1.66 18 2.32 18 3 C20.64 3 23.28 3 26 3 C26 3.66 26 4.32 26 5 C25.19369141 4.98428955 24.38738281 4.9685791 23.55664062 4.95239258 C19.8711663 4.88968024 16.18580465 4.8508938 12.5 4.8125 C11.2315625 4.78736328 9.963125 4.76222656 8.65625 4.73632812 C1.62361603 4.68138567 -3.59314616 5.09878317 -10 8 C-13.5 8.1875 -13.5 8.1875 -16 8 C-16 7.01 -16 6.02 -16 5 C-10.4477112 2.1647887 -6.19887485 1.62047705 0 2 C0 1.34 0 0.68 0 0 Z " fill="#EFBC47" transform="translate(814,344)"/>
<path d="M0 0 C0.66 0.33 1.32 0.66 2 1 C2 5.62 2 10.24 2 15 C6.0303028 15.34646126 6.0303028 15.34646126 10 15 C12.5404226 12.66169042 12.5404226 12.66169042 14 10 C13.125 15.875 13.125 15.875 12 17 C10.52351124 17.09823996 9.04224583 17.12973519 7.5625 17.125 C6.75941406 17.12757813 5.95632813 17.13015625 5.12890625 17.1328125 C3 17 3 17 1 16 C1 16.66 1 17.32 1 18 C-4.96674616 19.32594359 -10.92583615 19.0884587 -17 19 C-16.505 17.515 -16.505 17.515 -16 16 C-11.05 15.01 -11.05 15.01 -6 14 C-5.67 12.02 -5.34 10.04 -5 8 C-4.34 8 -3.68 8 -3 8 C-3 10.64 -3 13.28 -3 16 C-2.01 16 -1.02 16 0 16 C0 10.72 0 5.44 0 0 Z " fill="#DB9810" transform="translate(944,957)"/>
<path d="M0 0 C0.99 0.33 1.98 0.66 3 1 C3 3.97 3 6.94 3 10 C3.66 10 4.32 10 5 10 C5 7.03 5 4.06 5 1 C7.31 1 9.62 1 12 1 C12.144375 2.11375 12.28875 3.2275 12.4375 4.375 C12.78372035 7.82142047 12.78372035 7.82142047 14 10 C13.01 10 12.02 10 11 10 C11 8.02 11 6.04 11 4 C10.34 4 9.68 4 9 4 C8.67 6.64 8.34 9.28 8 12 C3.05 12 -1.9 12 -7 12 C-7 11.34 -7 10.68 -7 10 C-5.02 9.67 -3.04 9.34 -1 9 C-3.97 8.505 -3.97 8.505 -7 8 C-7 7.01 -7 6.02 -7 5 C-4.36 5.33 -1.72 5.66 1 6 C0.67 4.02 0.34 2.04 0 0 Z " fill="#BB8419" transform="translate(900,963)"/>
<path d="M0 0 C0.66 0 1.32 0 2 0 C2.33 0.99 2.66 1.98 3 3 C3.66 3.33 4.32 3.66 5 4 C6.5481711 11.10946284 6.21340097 18.82046792 6.25 26.0625 C6.270625 27.08666016 6.29125 28.11082031 6.3125 29.16601562 C6.35231554 36.9549305 5.37280309 43.44079537 1 50 C0.731875 51.11375 0.46375 52.2275 0.1875 53.375 C-1.15403592 57.47021491 -2.70523163 59.2818161 -6 62 C-6.66 62 -7.32 62 -8 62 C-6.82744291 58.66272214 -5.81131596 56.22562513 -3 54 C-2.34 54 -1.68 54 -1 54 C-1.020625 53.05125 -1.04125 52.1025 -1.0625 51.125 C-1 48 -1 48 0 46 C0.66 46 1.32 46 2 46 C5.88712697 30.24325316 4.37330116 15.42369607 0 0 Z " fill="#EAB335" transform="translate(875,378)"/>
<path d="M0 0 C2.475 0.495 2.475 0.495 5 1 C5 1.66 5 2.32 5 3 C6.299375 3.103125 7.59875 3.20625 8.9375 3.3125 C13.90160353 3.848308 18.34248334 5.24930225 23 7 C23 7.33 23 7.66 23 8 C16.25 8.125 16.25 8.125 14 7 C13.67 7.99 13.34 8.98 13 10 C10.69 10 8.38 10 6 10 C6 11.32 6 12.64 6 14 C4.02 14.33 2.04 14.66 0 15 C0 14.34 0 13.68 0 13 C0.99 13 1.98 13 3 13 C3 11.02 3 9.04 3 7 C5.66666667 7 8.33333333 7 11 7 C11 6.34 11 5.68 11 5 C6.545 5.495 6.545 5.495 2 6 C2 7.32 2 8.64 2 10 C1.34 10 0.68 10 0 10 C0 8.02 0 6.04 0 4 C0.99 3.67 1.98 3.34 3 3 C2.01 2.67 1.02 2.34 0 2 C0 1.34 0 0.68 0 0 Z " fill="#B48117" transform="translate(914,960)"/>
<path d="M0 0 C1.98 0 3.96 0 6 0 C6 5.28 6 10.56 6 16 C6.66 16 7.32 16 8 16 C8 13.03 8 10.06 8 7 C9.65 7 11.3 7 13 7 C13 7.66 13 8.32 13 9 C12.01 9 11.02 9 10 9 C10 11.97 10 14.94 10 18 C3.9453125 18.1953125 3.9453125 18.1953125 2 18 C1.34 17.34 0.68 16.68 0 16 C1.32 16 2.64 16 4 16 C4 15.34 4 14.68 4 14 C3.01 14 2.02 14 1 14 C1 11.69 1 9.38 1 7 C1.99 7 2.98 7 4 7 C4 6.34 4 5.68 4 5 C3.01 5 2.02 5 1 5 C1.33 3.68 1.66 2.36 2 1 C1.34 0.67 0.68 0.34 0 0 Z " fill="#CA921A" transform="translate(960,957)"/>
<path d="M0 0 C7.74908621 -0.13594888 14.33304234 0.7067264 21.6484375 3.30859375 C24.83105803 4.24434763 27.94796179 4.50222698 31.25 4.69140625 C31.8275 4.79324219 32.405 4.89507813 33 5 C33.495 5.99 33.495 5.99 34 7 C35.83149018 7.56063562 35.83149018 7.56063562 38.03515625 7.8515625 C38.84404297 7.98046875 39.65292969 8.109375 40.48632812 8.2421875 C41.33646484 8.36851562 42.18660156 8.49484375 43.0625 8.625 C43.91650391 8.7590625 44.77050781 8.893125 45.65039062 9.03125 C47.76569589 9.36213574 49.88270604 9.68208799 52 10 C52 10.66 52 11.32 52 12 C43.00040095 11.57762871 34.69553673 9.92229245 26 7.625 C24.81921875 7.32078125 23.6384375 7.0165625 22.421875 6.703125 C20.08761538 6.1015647 17.75425195 5.49651429 15.421875 4.88769531 C10.29006471 3.55641234 5.14582759 2.27585423 0 1 C0 0.67 0 0.34 0 0 Z " fill="#FBF1C3" transform="translate(516,741)"/>
<path d="M0 0 C0.66 0.33 1.32 0.66 2 1 C-0.52788007 3.79872437 -2.20411134 5.45773019 -6 6 C-6 6.66 -6 7.32 -6 8 C-6.66 8 -7.32 8 -8 8 C-8.33 8.99 -8.66 9.98 -9 11 C-9.99 11 -10.98 11 -12 11 C-12.66 11.33 -13.32 11.66 -14 12 C-18.35211724 12.23551963 -22.70818344 12.22843279 -27.06591797 12.24023438 C-29.2279362 12.24990135 -31.38898776 12.28090494 -33.55078125 12.3125 C-34.93489021 12.3190343 -36.31900595 12.32428309 -37.703125 12.328125 C-38.95770508 12.3374707 -40.21228516 12.34681641 -41.50488281 12.35644531 C-45.29352509 11.9700652 -47.72988969 10.9018108 -51 9 C-50.34 8.67 -49.68 8.34 -49 8 C-48.33097656 8.30292969 -47.66195312 8.60585938 -46.97265625 8.91796875 C-36.99217696 12.55081075 -21.63154946 10.96994461 -12 7 C-8.70993588 5.22336538 -5.53951784 3.35622412 -2.3984375 1.328125 C-1.60695313 0.88984375 -0.81546875 0.4515625 0 0 Z " fill="#ECB83B" transform="translate(856,448)"/>
<path d="M0 0 C0 0.66 0 1.32 0 2 C-0.66 2.66 -1.32 3.32 -2 4 C-2.33 4.99 -2.66 5.98 -3 7 C-4.99609375 8.0625 -4.99609375 8.0625 -7.4375 9 C-10.97530152 10.36287699 -11.80724219 10.71086329 -14 14 C-14.99 14.66 -15.98 15.32 -17 16 C-17.33 16.99 -17.66 17.98 -18 19 C-19.84765625 20.38671875 -19.84765625 20.38671875 -22.0625 21.6875 C-23.16271484 22.34298828 -23.16271484 22.34298828 -24.28515625 23.01171875 C-25.13400391 23.50091797 -25.13400391 23.50091797 -26 24 C-23.23155088 14.15662535 -12.29659067 5.58849946 -3.79296875 0.7421875 C-2 0 -2 0 0 0 Z " fill="#FAF9EB" transform="translate(198,352)"/>
<path d="M0 0 C3 0.25 3 0.25 5 2.25 C5.25 5.75 5.25 5.75 5 9.25 C3 11.25 3 11.25 0 11.4375 C-3 11.25 -3 11.25 -5 10.25 C-5.1953125 4.1953125 -5.1953125 4.1953125 -5 2.25 C-3 0.25 -3 0.25 0 0 Z " fill="#F2D281" transform="translate(951,961.75)"/>
<path d="M0 0 C0.66 0 1.32 0 2 0 C2 0.66 2 1.32 2 2 C3.32 2.33 4.64 2.66 6 3 C4.68 3.33 3.36 3.66 2 4 C2 5.98 2 7.96 2 10 C2.66 10 3.32 10 4 10 C4 8.68 4 7.36 4 6 C6.95664519 4.5216774 9.74229737 4.93967217 13 5 C13 5.66 13 6.32 13 7 C10.69 7.66 8.38 8.32 6 9 C5.67 10.32 5.34 11.64 5 13 C1.125 12.125 1.125 12.125 0 11 C-0.04092937 8.66702567 -0.04241723 6.33294775 0 4 C-2.31 4 -4.62 4 -7 4 C-7 6.97 -7 9.94 -7 13 C-7.66 13 -8.32 13 -9 13 C-9.0270043 11.54176788 -9.04639787 10.08339325 -9.0625 8.625 C-9.07410156 7.81289063 -9.08570313 7.00078125 -9.09765625 6.1640625 C-9 4 -9 4 -8 2 C-5.36 2 -2.72 2 0 2 C0 1.34 0 0.68 0 0 Z " fill="#F0D282" transform="translate(912,960)"/>
<path d="M0 0 C0.33 0 0.66 0 1 0 C1 1.65 1 3.3 1 5 C2.65 5 4.3 5 6 5 C6 5.33 6 5.66 6 6 C4.35 6 2.7 6 1 6 C1 9.3 1 12.6 1 16 C-2 16 -2 16 -3.75 14.8125 C-5 13 -5 13 -4.6875 10.3125 C-4.460625 9.549375 -4.23375 8.78625 -4 8 C-4.99 7.67 -5.98 7.34 -7 7 C-7 9.97 -7 12.94 -7 16 C-7.66 16 -8.32 16 -9 16 C-9.05422947 14.5629191 -9.09289723 13.12524538 -9.125 11.6875 C-9.14820313 10.88699219 -9.17140625 10.08648438 -9.1953125 9.26171875 C-9 7 -9 7 -7 4 C-3.875 3.8125 -3.875 3.8125 -1 4 C-0.67 2.68 -0.34 1.36 0 0 Z " fill="#ECBB53" transform="translate(880,957)"/>
<path d="M0 0 C-2.49685253 2.49685253 -4.43533461 2.88790598 -7.8203125 3.875 C-8.9959375 4.22046875 -10.1715625 4.5659375 -11.3828125 4.921875 C-13.23519531 5.45554687 -13.23519531 5.45554687 -15.125 6 C-16.94257812 6.53367187 -16.94257812 6.53367187 -18.796875 7.078125 C-36.7747791 12.32657631 -36.7747791 12.32657631 -42 12 C-42 11.01 -42 10.02 -42 9 C-39.45953542 8.49311395 -36.91791124 7.99433126 -34.375 7.5 C-33.66214844 7.35691406 -32.94929687 7.21382812 -32.21484375 7.06640625 C-28.07855065 6.26950574 -24.23566321 5.83965944 -20 6 C-19.67 5.01 -19.34 4.02 -19 3 C-18.38511719 2.95101562 -17.77023437 2.90203125 -17.13671875 2.8515625 C-16.32847656 2.77679687 -15.52023437 2.70203125 -14.6875 2.625 C-13.88699219 2.55539062 -13.08648438 2.48578125 -12.26171875 2.4140625 C-7.58357561 1.55761488 -5.18770536 -0.19576247 0 0 Z " fill="#EAB02B" transform="translate(762,689)"/>
<path d="M0 0 C0.33 0 0.66 0 1 0 C1.02578125 1.14855469 1.0515625 2.29710937 1.078125 3.48046875 C1.43554292 14.43970693 2.60963651 24.28416036 7.6328125 34.234375 C9 37 9 37 9 39 C8.01 39 7.02 39 6 39 C5.67 37.02 5.34 35.04 5 33 C4.34 33 3.68 33 3 33 C1.86235649 28.73383684 1 25.43513689 1 21 C0.34 21 -0.32 21 -1 21 C-1.02888146 17.68751813 -1.04675799 14.37506833 -1.0625 11.0625 C-1.07087891 10.11697266 -1.07925781 9.17144531 -1.08789062 8.19726562 C-1.09111328 7.29814453 -1.09433594 6.39902344 -1.09765625 5.47265625 C-1.10289307 4.64000244 -1.10812988 3.80734863 -1.11352539 2.94946289 C-1 1 -1 1 0 0 Z " fill="#EFB639" transform="translate(767,395)"/>
<path d="M0 0 C0.66 0 1.32 0 2 0 C2 0.99 2 1.98 2 3 C0.73308493 3.67408308 -0.53870749 4.33900497 -1.8125 5 C-2.52019531 5.37125 -3.22789062 5.7425 -3.95703125 6.125 C-6 7 -6 7 -9 7 C-9 7.66 -9 8.32 -9 9 C-20.07053631 13.52518272 -30.22417163 13.42266184 -42 13 C-42.33 12.34 -42.66 11.68 -43 11 C-42.41621582 10.98018066 -41.83243164 10.96036133 -41.23095703 10.93994141 C-38.52859732 10.84337139 -35.82687606 10.73424027 -33.125 10.625 C-32.2071875 10.5940625 -31.289375 10.563125 -30.34375 10.53125 C-24.06145511 10.26580092 -18.125489 9.41690436 -12 8 C-12 7.34 -12 6.68 -12 6 C-11.07767578 5.72736328 -11.07767578 5.72736328 -10.13671875 5.44921875 C-8.92435547 5.07216797 -8.92435547 5.07216797 -7.6875 4.6875 C-6.48673828 4.32205078 -6.48673828 4.32205078 -5.26171875 3.94921875 C-2.88593789 2.95212938 -1.75402699 1.83632738 0 0 Z " fill="#E6B12F" transform="translate(254,448)"/>
<path d="M0 0 C1.85625 0.0309375 1.85625 0.0309375 3.75 0.0625 C0.00670827 2.35547929 -3.96638381 2.78162776 -8.234375 3.3515625 C-9.00879944 3.45971283 -9.78322388 3.56786316 -10.58111572 3.67929077 C-12.21799375 3.90615806 -13.85536099 4.12951953 -15.49316406 4.34960938 C-17.97860909 4.68461677 -20.46193664 5.03283297 -22.9453125 5.3828125 C-24.54155735 5.60235879 -26.13790856 5.82113341 -27.734375 6.0390625 C-28.83480133 6.19370468 -28.83480133 6.19370468 -29.9574585 6.35147095 C-34.76245606 6.98772636 -39.40268 7.15191128 -44.25 7.0625 C-44.25 6.4025 -44.25 5.7425 -44.25 5.0625 C-43.18040039 4.94656494 -42.11080078 4.83062988 -41.00878906 4.71118164 C-37.03517345 4.27973516 -33.06196446 3.84463908 -29.08886719 3.40844727 C-27.37022577 3.2202784 -25.65147611 3.03309541 -23.93261719 2.84692383 C-21.45999401 2.57893721 -18.98778359 2.30739117 -16.515625 2.03515625 C-15.74881409 1.95282242 -14.98200317 1.87048859 -14.19195557 1.78565979 C-9.39964886 1.25346039 -4.81723575 -0.08028726 0 0 Z " fill="#FAF2C8" transform="translate(716.25,747.9375)"/>
<path d="M0 0 C-1 1 -1 1 -3.5625 1.0625 C-4.7690625 1.0315625 -4.7690625 1.0315625 -6 1 C-6 1.66 -6 2.32 -6 3 C-13.6603585 5.85413245 -20.49825344 6.38005353 -28.625 6.1875 C-29.72457031 6.17396484 -30.82414063 6.16042969 -31.95703125 6.14648438 C-34.63855332 6.111508 -37.31900073 6.06243072 -40 6 C-40 5.34 -40 4.68 -40 4 C-40.99 3.67 -41.98 3.34 -43 3 C-42.11739502 3.00523682 -41.23479004 3.01047363 -40.32543945 3.01586914 C-37.03604473 3.03295971 -33.74669753 3.04547384 -30.45727539 3.05493164 C-29.03636936 3.05994565 -27.61546844 3.06675852 -26.19458008 3.07543945 C-24.14663424 3.08763388 -22.0987569 3.09325772 -20.05078125 3.09765625 C-18.82012939 3.10289307 -17.58947754 3.10812988 -16.3215332 3.11352539 C-13.40780381 3.01393817 -10.82692674 2.67799322 -8 2 C-8 1.34 -8 0.68 -8 0 C-2.25 -1.125 -2.25 -1.125 0 0 Z " fill="#FBF1C5" transform="translate(248,453)"/>
<path d="M0 0 C1.98 0 3.96 0 6 0 C6 1.32 6 2.64 6 4 C8.64 4 11.28 4 14 4 C14 4.33 14 4.66 14 5 C0.46145295 5.53755996 -12.61181573 3.89151702 -26 2 C-26 1.67 -26 1.34 -26 1 C-17.42 1 -8.84 1 0 1 C0 0.67 0 0.34 0 0 Z " fill="#F9EBBD" transform="translate(594,752)"/>
<path d="M0 0 C-2.64 0.33 -5.28 0.66 -8 1 C-8 1.99 -8 2.98 -8 4 C-8.90363281 4.06058594 -9.80726563 4.12117187 -10.73828125 4.18359375 C-11.91777344 4.26738281 -13.09726562 4.35117187 -14.3125 4.4375 C-16.07013672 4.55931641 -16.07013672 4.55931641 -17.86328125 4.68359375 C-21.02590958 4.8867371 -21.02590958 4.8867371 -24 6 C-26.74607776 5.91232913 -29.45091508 5.77043265 -32.1875 5.5625 C-32.93708984 5.51029297 -33.68667969 5.45808594 -34.45898438 5.40429688 C-36.30637082 5.27486216 -38.15324371 5.13813482 -40 5 C-40 4.67 -40 4.34 -40 4 C-34.94765955 3.25980701 -29.89400325 2.52969142 -24.83886719 1.80883789 C-23.11971897 1.56224939 -21.40096134 1.31292158 -19.68261719 1.06079102 C-17.21126554 0.69865943 -14.73867233 0.34643323 -12.265625 -0.00390625 C-11.11540863 -0.17570152 -11.11540863 -0.17570152 -9.94195557 -0.35096741 C-6.31509741 -0.85528919 -3.50515701 -1.03579638 0 0 Z " fill="#ECB12D" transform="translate(720,750)"/>
<path d="M0 0 C3.3 0 6.6 0 10 0 C10 0.66 10 1.32 10 2 C7.36 2.33 4.72 2.66 2 3 C1.67 4.32 1.34 5.64 1 7 C1.95712891 6.98259766 1.95712891 6.98259766 2.93359375 6.96484375 C4.17302734 6.95130859 4.17302734 6.95130859 5.4375 6.9375 C6.26121094 6.92589844 7.08492187 6.91429687 7.93359375 6.90234375 C10 7 10 7 11 8 C11.25 10.9375 11.25 10.9375 11 14 C7.91111478 16.05925681 7.29064073 16.2390374 3.8125 16.125 C2.554375 16.08375 1.29625 16.0425 0 16 C0 15.34 0 14.68 0 14 C2.64 13.67 5.28 13.34 8 13 C8 12.01 8 11.02 8 10 C5.36 9.34 2.72 8.68 0 8 C-0.79953138 4.71303767 -1.09658936 3.28976808 0 0 Z " fill="#F3D483" transform="translate(928,957)"/>
<path d="M0 0 C1.078125 1.63671875 1.078125 1.63671875 1.078125 3.63671875 C2.068125 3.96671875 3.058125 4.29671875 4.078125 4.63671875 C4.078125 5.29671875 4.078125 5.95671875 4.078125 6.63671875 C3.376875 6.34796875 2.675625 6.05921875 1.953125 5.76171875 C1.004375 5.39046875 0.055625 5.01921875 -0.921875 4.63671875 C-1.870625 4.26546875 -2.819375 3.89421875 -3.796875 3.51171875 C-10.05697157 1.75889171 -14.86244389 2.69657268 -20.80859375 4.8828125 C-22.82991011 5.60391057 -24.83298947 6.15104108 -26.921875 6.63671875 C-26.921875 5.97671875 -26.921875 5.31671875 -26.921875 4.63671875 C-21.07410828 -0.9771373 -12.64137355 -0.81375617 -5.03125 -1.5078125 C-1.921875 -1.36328125 -1.921875 -1.36328125 0 0 Z " fill="#ECBA3A" transform="translate(866.921875,649.36328125)"/>
<path d="M0 0 C2.0625 1.6875 2.0625 1.6875 4 4 C3.75 6.75 3.75 6.75 3 9 C2.34 9 1.68 9 1 9 C0.67 11.31 0.34 13.62 0 16 C-1.32 15.67 -2.64 15.34 -4 15 C-4.33 15.99 -4.66 16.98 -5 18 C-7.0625 19.1875 -7.0625 19.1875 -9 20 C-8.024336 18.03999944 -7.04359021 16.0840038 -6.03515625 14.140625 C-3.6604517 9.52473343 -1.74596897 4.88871312 0 0 Z " fill="#F1B421" transform="translate(276,416)"/>
<path d="M0 0 C0.66 0 1.32 0 2 0 C2 1.65 2 3.3 2 5 C3.423125 4.9071875 3.423125 4.9071875 4.875 4.8125 C5.90625 4.874375 6.9375 4.93625 8 5 C10.67927341 9.01891012 10.15601248 11.24161923 10 16 C9.01 16 8.02 16 7 16 C7 13.03 7 10.06 7 7 C5.35 7 3.7 7 2 7 C2 9.97 2 12.94 2 16 C1.34 16 0.68 16 0 16 C0 10.72 0 5.44 0 0 Z " fill="#F9D98D" transform="translate(966,957)"/>
<path d="M0 0 C1.95918968 0.05991406 3.91751529 0.14867138 5.875 0.25 C6.96554687 0.29640625 8.05609375 0.3428125 9.1796875 0.390625 C10.11039062 0.59171875 11.04109375 0.7928125 12 1 C12.70438534 2.31379737 13.37058422 3.64868286 14 5 C16.52734697 6.06329417 16.52734697 6.06329417 19.4375 6.625 C22.95374901 7.42095517 24.9569157 7.97127713 28 10 C28 10.66 28 11.32 28 12 C25.36 11.67 22.72 11.34 20 11 C20 10.34 20 9.68 20 9 C18.8553125 8.7834375 18.8553125 8.7834375 17.6875 8.5625 C15 8 15 8 12 7 C12 6.34 12 5.68 12 5 C10.4221875 4.87625 10.4221875 4.87625 8.8125 4.75 C4.72952791 3.94679238 2.9877273 2.80665291 0 0 Z " fill="#EAB539" transform="translate(476,676)"/>
<path d="M0 0 C0.33 0 0.66 0 1 0 C1.66202692 16.66067127 2.11078416 30.1115198 -8.765625 43.70703125 C-9.37664062 44.34705078 -9.37664062 44.34705078 -10 45 C-10.33 45 -10.66 45 -11 45 C-11 43.35 -11 41.7 -11 40 C-10.01 40 -9.02 40 -8 40 C-6.43650383 37.0819231 -5.40215819 34.24456883 -4.5 31.0625 C-3.77356176 28.50812207 -3.04122571 26.09433701 -1.97705078 23.65917969 C-0.97327294 20.92725858 -0.6925364 18.81390542 -0.5859375 15.91796875 C-0.54726563 14.98662109 -0.50859375 14.05527344 -0.46875 13.09570312 C-0.4378125 12.13599609 -0.406875 11.17628906 -0.375 10.1875 C-0.33632813 9.20845703 -0.29765625 8.22941406 -0.2578125 7.22070312 C-0.16389184 4.81398626 -0.07821799 2.40726988 0 0 Z " fill="#FBEFBE" transform="translate(276,392)"/>
<path d="M0 0 C0.66 0 1.32 0 2 0 C1.34 2.64 0.68 5.28 0 8 C-0.66 8 -1.32 8 -2 8 C-1.67 13.28 -1.34 18.56 -1 24 C-2.65 24 -4.3 24 -6 24 C-6.26573427 16.02797203 -6.26573427 16.02797203 -4 12 C-3.64071879 10.67342324 -3.31011826 9.33892328 -3 8 C-2.31698293 5.09446706 -1.51635261 2.59946161 0 0 Z " fill="#F4AC0E" transform="translate(422,672)"/>
<path d="M0 0 C2.97 0.495 2.97 0.495 6 1 C6 1.66 6 2.32 6 3 C7.2684375 3.185625 7.2684375 3.185625 8.5625 3.375 C12.15236798 4.02770327 15.50824875 4.95247463 19 6 C19 6.33 19 6.66 19 7 C16.69 7 14.38 7 12 7 C12 7.66 12 8.32 12 9 C9.03 8.505 9.03 8.505 6 8 C6 7.01 6 6.02 6 5 C4.02 5.33 2.04 5.66 0 6 C0 4.02 0 2.04 0 0 Z " fill="#FBF8E2" transform="translate(498,687)"/>
<path d="M0 0 C-7.92 0.495 -7.92 0.495 -16 1 C-16 1.66 -16 2.32 -16 3 C-16.66 3 -17.32 3 -18 3 C-18.33 3.99 -18.66 4.98 -19 6 C-21.5625 7.1875 -21.5625 7.1875 -24 8 C-24 5.36 -24 2.72 -24 0 C-22.80375 -0.144375 -21.6075 -0.28875 -20.375 -0.4375 C-17.87109304 -0.74553776 -15.42094601 -1.10635685 -12.9375 -1.5625 C-4.27826087 -2.85217391 -4.27826087 -2.85217391 0 0 Z " fill="#EFB732" transform="translate(448,664)"/>
<path d="M0 0 C4.78740197 9.25564381 4.25089229 21.68545522 1.5 31.625 C1.02438859 33.09146851 0.53502805 34.55415039 0 36 C-0.66 36 -1.32 36 -2 36 C-3.81478988 30.88559217 -1.90421729 26.7982505 0 22 C0.33 21.34 0.66 20.68 1 20 C1.35225591 13.2656959 1.02420892 6.657358 0 0 Z " fill="#FCEFB6" transform="translate(877,388)"/>
<path d="M0 0 C5.98511371 0.34302035 10.75117306 0.82307843 16 4 C16 4.66 16 5.32 16 6 C16.66 6 17.32 6 18 6 C18 6.66 18 7.32 18 8 C18.66 8 19.32 8 20 8 C20 8.66 20 9.32 20 10 C15.89100419 8.87204037 11.92438786 7.66489182 8 6 C8 5.34 8 4.68 8 4 C7.236875 3.896875 6.47375 3.79375 5.6875 3.6875 C2.77363954 2.94209384 1.97049603 2.15541061 0 0 Z " fill="#EBB737" transform="translate(456,666)"/>
<path d="M0 0 C2.79828356 0.38597015 3.8205884 0.80136573 5.75 2.9375 C7 5 7 5 7 7 C7.66 7 8.32 7 9 7 C12.14195245 12.89116084 12.84985794 18.344619 12 25 C11.34 25.66 10.68 26.32 10 27 C10 22.38 10 17.76 10 13 C9.01 12.67 8.02 12.34 7 12 C5.00603743 9.33916031 3 6.38757675 3 3 C2.01 2.67 1.02 2.34 0 2 C0 1.34 0 0.68 0 0 Z " fill="#FAF1C8" transform="translate(868,655)"/>
<path d="M0 0 C0.33 0 0.66 0 1 0 C1.01981934 0.60996826 1.03963867 1.21993652 1.06005859 1.84838867 C1.15567876 4.62850533 1.26520705 7.40790846 1.375 10.1875 C1.4059375 11.14720703 1.436875 12.10691406 1.46875 13.09570312 C1.50742188 14.02705078 1.54609375 14.95839844 1.5859375 15.91796875 C1.6173584 16.77156982 1.6487793 17.6251709 1.68115234 18.50463867 C2.03384629 21.2648874 2.94623823 23.43581143 4 26 C4.125 29.3125 4.125 29.3125 4 32 C3.34 32 2.68 32 2 32 C-0.61647738 21.75213026 -3.15370238 10.42756432 0 0 Z " fill="#E5AB26" transform="translate(164,392)"/>
<path d="M0 0 C0.33 0 0.66 0 1 0 C0.97905273 0.70608398 0.95810547 1.41216797 0.93652344 2.13964844 C0.85330702 5.34295376 0.80132215 8.54603163 0.75 11.75 C0.71648438 12.86117188 0.68296875 13.97234375 0.6484375 15.1171875 C0.63554688 16.18710937 0.62265625 17.25703125 0.609375 18.359375 C0.58842773 19.34389648 0.56748047 20.32841797 0.54589844 21.34277344 C1.12083956 24.70710632 2.51021368 25.76620753 5 28 C5 28.66 5 29.32 5 30 C4.34 30 3.68 30 3 30 C3 31.98 3 33.96 3 36 C2.67 36 2.34 36 2 36 C-2.11770335 25.53417064 -3.10962741 10.92887588 0 0 Z " fill="#FDF5C9" transform="translate(769,388)"/>
<path d="M0 0 C2.31 0 4.62 0 7 0 C7.144375 1.11375 7.28875 2.2275 7.4375 3.375 C7.78372035 6.82142047 7.78372035 6.82142047 9 9 C8.01 9 7.02 9 6 9 C6 7.02 6 5.04 6 3 C5.34 3 4.68 3 4 3 C3.67 5.64 3.34 8.28 3 11 C1.68 11 0.36 11 -1 11 C-0.67 7.37 -0.34 3.74 0 0 Z " fill="#E29F16" transform="translate(905,964)"/>
<path d="M0 0 C-7.68206458 6.69488338 -22.23849739 4.11148924 -32 4 C-32 3.67 -32 3.34 -32 3 C-28.16772354 2.49167358 -24.33403696 1.99485826 -20.5 1.5 C-18.88351562 1.28537109 -18.88351562 1.28537109 -17.234375 1.06640625 C-11.43522303 0.32383191 -5.84610901 -0.17027502 0 0 Z " fill="#FCF2C3" transform="translate(696,707)"/>
<path d="M0 0 C5.09882455 1.5280389 9.65665659 3.71036856 14.375 6.125 C15.11105469 6.49753906 15.84710938 6.87007812 16.60546875 7.25390625 C18.40550358 8.1656122 20.20301402 9.08229932 22 10 C22 10.33 22 10.66 22 11 C19.36 11.33 16.72 11.66 14 12 C14 11.34 14 10.68 14 10 C11.36 8.68 8.72 7.36 6 6 C6 5.34 6 4.68 6 4 C4.35 3.67 2.7 3.34 1 3 C0.67 2.01 0.34 1.02 0 0 Z " fill="#EAB536" transform="translate(434,708)"/>
<path d="M0 0 C0.66 0 1.32 0 2 0 C2 5.28 2 10.56 2 16 C1.01 16 0.02 16 -1 16 C-2.03046722 14.21385682 -3.04913236 12.42089982 -4.0625 10.625 C-4.63097656 9.62726562 -5.19945312 8.62953125 -5.78515625 7.6015625 C-6.18605469 6.74304688 -6.58695313 5.88453125 -7 5 C-6.67 4.34 -6.34 3.68 -6 3 C-4.35 5.64 -2.7 8.28 -1 11 C-0.67 7.37 -0.34 3.74 0 0 Z " fill="#F6D789" transform="translate(854,957)"/>
<path d="M0 0 C0.66 0.33 1.32 0.66 2 1 C2 5.62 2 10.24 2 15 C6.0303028 15.34646126 6.0303028 15.34646126 10 15 C12.5404226 12.66169042 12.5404226 12.66169042 14 10 C13.125 15.875 13.125 15.875 12 17 C7.66469082 17.14393457 3.33842269 17.04212061 -1 17 C-0.67 11.39 -0.34 5.78 0 0 Z " fill="#9E6D0D" transform="translate(944,957)"/>
<path d="M0 0 C9.14097026 1.47185114 18.04495196 3.68539536 27 6 C27 6.33 27 6.66 27 7 C18.9295642 6.38541771 10.98614219 5.30774665 3 4 C3 3.34 3 2.68 3 2 C2.01 2 1.02 2 0 2 C0 1.34 0 0.68 0 0 Z " fill="#EAB940" transform="translate(525,744)"/>
<path d="M0 0 C7.59 0 15.18 0 23 0 C19.70718011 3.29281989 18.70808888 3.38528746 14.24414062 3.41015625 C13.52419922 3.39855469 12.80425781 3.38695312 12.0625 3.375 C11.34642578 3.38660156 10.63035156 3.39820313 9.89257812 3.41015625 C5.16921073 3.383891 3.95914059 2.96935544 0 0 Z " fill="#F7AD0E" transform="translate(812,460)"/>
<path d="M0 0 C0.53625 0.226875 1.0725 0.45375 1.625 0.6875 C0.965 0.6875 0.305 0.6875 -0.375 0.6875 C-0.375 1.3475 -0.375 2.0075 -0.375 2.6875 C-5.30237019 4.65844808 -9.15520872 4.8674928 -14.375 4.6875 C-14.375 5.3475 -14.375 6.0075 -14.375 6.6875 C-19.30237019 8.65844808 -23.15520872 8.8674928 -28.375 8.6875 C-28.375 8.3575 -28.375 8.0275 -28.375 7.6875 C-21.69478991 5.52773283 -15.33167683 3.68131098 -8.375 2.6875 C-7.323125 2.15125 -6.27125 1.615 -5.1875 1.0625 C-2.375 -0.3125 -2.375 -0.3125 0 0 Z " fill="#ECB73C" transform="translate(788.375,730.3125)"/>
<path d="M0 0 C1.32 0.33 2.64 0.66 4 1 C3.01 1 2.02 1 1 1 C0.67 2.32 0.34 3.64 0 5 C1.98 5 3.96 5 6 5 C6 4.01 6 3.02 6 2 C6.66 2 7.32 2 8 2 C8 3.65 8 5.3 8 7 C2.25 7.125 2.25 7.125 0 6 C0 6.99 0 7.98 0 9 C2.31 9 4.62 9 7 9 C6.67 9.66 6.34 10.32 6 11 C-0.875 10.125 -0.875 10.125 -2 9 C-2.26293056 4.96839809 -2.29404844 3.44107266 0 0 Z " fill="#FADC8C" transform="translate(893,962)"/>
<path d="M0 0 C-6.02516133 6.02516133 -15.93531826 6.94688005 -24 8 C-23.67 6.68 -23.34 5.36 -23 4 C-22.01 4.33 -21.02 4.66 -20 5 C-17.35936827 4.27674199 -17.35936827 4.27674199 -14.5625 3.125 C-9.48581335 1.14958179 -5.47374684 -0.15204852 0 0 Z " fill="#F9EBB6" transform="translate(792,728)"/>
<path d="M0 0 C0 0.99 0 1.98 0 3 C1.093125 3.12375 2.18625 3.2475 3.3125 3.375 C7 4 7 4 10 6 C10 6.66 10 7.32 10 8 C7.69 7.67 5.38 7.34 3 7 C3 6.34 3 5.68 3 5 C1.453125 4.814375 1.453125 4.814375 -0.125 4.625 C-3.62116846 4.06110186 -6.68397627 3.21317941 -10 2 C-10 1.67 -10 1.34 -10 1 C-6.56484998 0.37542727 -3.50935186 0 0 0 Z " fill="#EEB83C" transform="translate(514,688)"/>
<path d="M0 0 C2.60607392 0.61778047 5.20965697 1.24387211 7.8125 1.875 C8.55048828 2.04902344 9.28847656 2.22304688 10.04882812 2.40234375 C13.49717037 3.24492511 16.01928362 4.01285575 19 6 C15.30072399 7.233092 11.84996167 7.4492913 8 7 C5.5 5.625 5.5 5.625 4 4 C4 3.34 4 2.68 4 2 C2.68 2 1.36 2 0 2 C0 1.34 0 0.68 0 0 Z " fill="#FBF6D7" transform="translate(520,695)"/>
<path d="M0 0 C1.23556641 0.01740234 1.23556641 0.01740234 2.49609375 0.03515625 C3.32238281 0.04417969 4.14867187 0.05320312 5 0.0625 C5.63808594 0.07410156 6.27617188 0.08570313 6.93359375 0.09765625 C6.93359375 0.42765625 6.93359375 0.75765625 6.93359375 1.09765625 C2.53971239 2.10636657 -1.85680145 3.10309969 -6.25390625 4.09765625 C-7.49978516 4.38382813 -8.74566406 4.67 -10.02929688 4.96484375 C-11.23134766 5.23554687 -12.43339844 5.50625 -13.671875 5.78515625 C-15.32932739 6.16220703 -15.32932739 6.16220703 -17.02026367 6.546875 C-19.78921975 7.04753741 -22.26271736 7.20715752 -25.06640625 7.09765625 C-24.46828125 6.80890625 -23.87015625 6.52015625 -23.25390625 6.22265625 C-20.87312833 5.05023599 -20.87312833 5.05023599 -18.06640625 3.09765625 C-15.51129874 2.66616458 -13.01236343 2.31303226 -10.44140625 2.03515625 C-6.79798078 1.62544019 -3.30724051 0.15629681 0 0 Z " fill="#FAF4C4" transform="translate(745.06640625,740.90234375)"/>
<path d="M0 0 C0.66 0.33 1.32 0.66 2 1 C3.53086343 6.81728105 4.61436502 14.7261129 1.8828125 20.265625 C0.5 22.1875 0.5 22.1875 -2 25 C-2 22 -2 22 -1.01171875 19.65625 C0.09967092 16.73831574 0.23552237 14.6083569 0.1875 11.5 C0.18105469 10.5821875 0.17460938 9.664375 0.16796875 8.71875 C0.06260816 5.97219453 0.06260816 5.97219453 -0.57421875 3.21875 C-0.71472656 2.4865625 -0.85523438 1.754375 -1 1 C-0.67 0.67 -0.34 0.34 0 0 Z " fill="#ECB328" transform="translate(879,663)"/>
<path d="M0 0 C0.99 0 1.98 0 3 0 C3 5.28 3 10.56 3 16 C2.01 16 1.02 16 0 16 C0 10.72 0 5.44 0 0 Z " fill="#EBC773" transform="translate(941,957)"/>
<path d="M0 0 C0 0.66 0 1.32 0 2 C-3.06156654 3.77669223 -5.24036215 4.24050818 -8.765625 4.1953125 C-9.65507813 4.18886719 -10.54453125 4.18242188 -11.4609375 4.17578125 C-12.38132812 4.15902344 -13.30171875 4.14226563 -14.25 4.125 C-15.18585937 4.11597656 -16.12171875 4.10695313 -17.0859375 4.09765625 C-19.39088657 4.07413636 -21.6953116 4.04126853 -24 4 C-24 3.67 -24 3.34 -24 3 C-21.50159546 2.49061655 -19.00176612 1.99236886 -16.5 1.5 C-15.80390625 1.35691406 -15.1078125 1.21382812 -14.390625 1.06640625 C-9.50912797 0.11722627 -4.97281701 -0.13440046 0 0 Z " fill="#F9AF0A" transform="translate(688,755)"/>
<path d="M0 0 C8.60524677 -0.15096924 15.90312023 1.08071682 24 4 C24 4.66 24 5.32 24 6 C18.3444819 5.39496146 12.99786009 4.37814297 7.5 2.9375 C6.77296875 2.75123047 6.0459375 2.56496094 5.296875 2.37304688 C3.53012276 1.91973545 1.76489225 1.4604998 0 1 C0 0.67 0 0.34 0 0 Z " fill="#FCF6CF" transform="translate(516,741)"/>
<path d="M0 0 C0 0.66 0 1.32 0 2 C-1.32 2 -2.64 2 -4 2 C-4 2.66 -4 3.32 -4 4 C-7.3 4.33 -10.6 4.66 -14 5 C-14 5.66 -14 6.32 -14 7 C-16.64 7.33 -19.28 7.66 -22 8 C-18.26414605 4.38465747 -15.15668264 3.33683691 -10.18359375 2.4921875 C-7.95939863 2.08842375 -7.95939863 2.08842375 -5.97265625 0.9453125 C-4 0 -4 0 0 0 Z " fill="#E7B025" transform="translate(812,722)"/>
<path d="M0 0 C0 0.66 0 1.32 0 2 C-0.83402344 2.24234375 -1.66804687 2.4846875 -2.52734375 2.734375 C-8.63426553 4.55316041 -14.42746338 6.43567687 -20.09765625 9.36328125 C-22.43194469 10.14457286 -23.70734604 9.7914507 -26 9 C-25.01 8.67 -24.02 8.34 -23 8 C-22.67 7.34 -22.34 6.68 -22 6 C-20.02 6 -18.04 6 -16 6 C-16 5.01 -16 4.02 -16 3 C-15.40832031 2.95101562 -14.81664062 2.90203125 -14.20703125 2.8515625 C-9.41567676 2.39822064 -4.55203067 0 0 0 Z " fill="#F6E1A0" transform="translate(826,715)"/>
<path d="M0 0 C3.05486918 4.58230378 4.2526833 8.12427149 4.265625 13.6328125 C4.26820313 14.68597656 4.27078125 15.73914063 4.2734375 16.82421875 C4.26570313 17.91347656 4.25796875 19.00273437 4.25 20.125 C4.25773437 21.22199219 4.26546875 22.31898438 4.2734375 23.44921875 C4.27085937 24.49980469 4.26828125 25.55039062 4.265625 26.6328125 C4.26336914 27.59074707 4.26111328 28.54868164 4.25878906 29.53564453 C4 32 4 32 2 35 C2.02356567 33.98015015 2.02356567 33.98015015 2.04760742 32.93969727 C2.11055057 29.81405185 2.14917726 26.68854042 2.1875 23.5625 C2.21263672 22.49322266 2.23777344 21.42394531 2.26367188 20.32226562 C2.31926345 14.26278399 1.87465569 9.35090496 -0.44799805 3.72241211 C-1 2 -1 2 0 0 Z " fill="#FEFEEB" transform="translate(272,381)"/>
<path d="M0 0 C3 0 6 0 9 0 C9.33 0.99 9.66 1.98 10 3 C7.69 3 5.38 3 3 3 C3 4.32 3 5.64 3 7 C1.02 7.33 -0.96 7.66 -3 8 C-3 7.34 -3 6.68 -3 6 C-2.01 6 -1.02 6 0 6 C0 4.02 0 2.04 0 0 Z " fill="#CC890A" transform="translate(917,967)"/>
<path d="M0 0 C0 0.66 0 1.32 0 2 C-0.66 2 -1.32 2 -2 2 C-2.2475 2.61875 -2.495 3.2375 -2.75 3.875 C-4.30552932 6.51939985 -5.07621471 7.07669938 -8 8 C-10.6912795 8.15467124 -13.29937883 8.09002071 -16 8 C-12.79663178 5.16625119 -10.21912747 4.4794463 -6 4 C-6 3.34 -6 2.68 -6 2 C-2.25 0 -2.25 0 0 0 Z " fill="#EEB83E" transform="translate(856,700)"/>
<path d="M0 0 C0.66 0 1.32 0 2 0 C1.39891424 5.65020618 -0.07528683 10.66164461 -2 16 C-2.66 16 -3.32 16 -4 16 C-3.67 11.71 -3.34 7.42 -3 3 C-2.01 2.67 -1.02 2.34 0 2 C0 1.34 0 0.68 0 0 Z " fill="#F1B63C" transform="translate(169,376)"/>
<path d="M0 0 C0 0.66 0 1.32 0 2 C-2.49840454 2.50938345 -4.99823388 3.00763114 -7.5 3.5 C-8.19609375 3.64308594 -8.8921875 3.78617188 -9.609375 3.93359375 C-14.49087203 4.88277373 -19.02718299 5.13440046 -24 5 C-24 4.67 -24 4.34 -24 4 C-21.12666819 3.32533928 -18.25168518 2.6600766 -15.375 2 C-14.56675781 1.80921875 -13.75851562 1.6184375 -12.92578125 1.421875 C-8.52795831 0.42074457 -4.54438961 -0.2353082 0 0 Z " fill="#E5B333" transform="translate(744,744)"/>
<path d="M0 0 C5.06998019 0.65419099 9.41990777 2.8546409 14 5 C14 5.33 14 5.66 14 6 C7.07 5.505 7.07 5.505 0 5 C0 3.35 0 1.7 0 0 Z " fill="#FBFAE5" transform="translate(464,672)"/>
<path d="M0 0 C0 2 0 2 -1.4375 3.5 C-1.953125 3.995 -2.46875 4.49 -3 5 C-3.33 5.66 -3.66 6.32 -4 7 C-7.0625 7.625 -7.0625 7.625 -10 8 C-10.33 8.99 -10.66 9.98 -11 11 C-11.99 10.67 -12.98 10.34 -14 10 C-11.02160153 5.65650223 -5.69716881 0 0 0 Z " fill="#F9F1C5" transform="translate(796,355)"/>
<path d="M0 0 C4.57399709 0.78488708 8.90157509 2.15526122 13.3125 3.5625 C14.05306641 3.79646484 14.79363281 4.03042969 15.55664062 4.27148438 C17.37183405 4.84531972 19.18602006 5.42234011 21 6 C21 6.33 21 6.66 21 7 C16.71 7 12.42 7 8 7 C8 6.01 8 5.02 8 4 C5.03 3.505 5.03 3.505 2 3 C2 2.34 2 1.68 2 1 C1.34 0.67 0.68 0.34 0 0 Z " fill="#EAB12B" transform="translate(475,728)"/>
<path d="M0 0 C1.64846769 0.44876616 3.29373455 0.90930488 4.9375 1.375 C5.85402344 1.63023437 6.77054688 1.88546875 7.71484375 2.1484375 C10 3 10 3 11 5 C7.36576791 7.32590854 4.22911669 7.16265833 0 7 C0 6.01 0 5.02 0 4 C0.66 4 1.32 4 2 4 C2 3.34 2 2.68 2 2 C1.34 2 0.68 2 0 2 C0 1.34 0 0.68 0 0 Z " fill="#F3AB0A" transform="translate(800,455)"/>
<path d="M0 0 C0.66 0.66 1.32 1.32 2 2 C1.67 2.66 1.34 3.32 1 4 C0.34 4 -0.32 4 -1 4 C-1 4.66 -1 5.32 -1 6 C-3.1171875 7.47265625 -3.1171875 7.47265625 -5.875 9.0625 C-6.77992188 9.58972656 -7.68484375 10.11695313 -8.6171875 10.66015625 C-10.06072748 11.47185168 -11.51874185 12.25937093 -13 13 C-13 10 -13 10 -10.875 7.375 C-7.68576743 4.74041657 -5.97099149 4.61770979 -2 4 C-0.56362302 2.04836882 -0.56362302 2.04836882 0 0 Z " fill="#EBAC21" transform="translate(797,349)"/>
<path d="M0 0 C2.64 0.33 5.28 0.66 8 1 C8 1.66 8 2.32 8 3 C8.763125 3.144375 9.52625 3.28875 10.3125 3.4375 C13 4 13 4 16 5 C16 5.66 16 6.32 16 7 C13.69 7 11.38 7 9 7 C8.67 6.34 8.34 5.68 8 5 C6.11986894 3.87775145 6.11986894 3.87775145 3.9375 2.875 C3.20402344 2.52179687 2.47054688 2.16859375 1.71484375 1.8046875 C1.14894531 1.53914062 0.58304687 1.27359375 0 1 C0 0.67 0 0.34 0 0 Z " fill="#EAB63D" transform="translate(456,720)"/>
<path d="M0 0 C6.30367803 0.58367389 11.98660063 2.04071619 18 4 C18 4.66 18 5.32 18 6 C18.66 6.33 19.32 6.66 20 7 C15.27497299 6.36757331 11.09429803 5.08186437 6.625 3.4375 C5.98433594 3.20353516 5.34367187 2.96957031 4.68359375 2.72851562 C3.1206839 2.15700381 1.56009273 1.57915771 0 1 C0 0.67 0 0.34 0 0 Z " fill="#F7EAB4" transform="translate(472,726)"/>
<path d="M0 0 C4 3 4 3 4.390625 5.48046875 C4.34421875 6.37378906 4.2978125 7.26710938 4.25 8.1875 C4.21390625 9.08855469 4.1778125 9.98960937 4.140625 10.91796875 C4.09421875 11.60503906 4.0478125 12.29210937 4 13 C2.68 13 1.36 13 0 13 C0 8.71 0 4.42 0 0 Z " fill="#E8A411" transform="translate(975,962)"/>
<path d="M0 0 C1.65 0 3.3 0 5 0 C5 0.66 5 1.32 5 2 C4.01 2 3.02 2 2 2 C2 4.97 2 7.94 2 11 C-4.0546875 11.1953125 -4.0546875 11.1953125 -6 11 C-6.66 10.34 -7.32 9.68 -8 9 C-5.36 9 -2.72 9 0 9 C0 6.03 0 3.06 0 0 Z " fill="#9F7111" transform="translate(968,964)"/>
<path d="M0 0 C3.3 0.66 6.6 1.32 10 2 C9.67 2.99 9.34 3.98 9 5 C6.36 5 3.72 5 1 5 C1 5.99 1 6.98 1 8 C0.34 8 -0.32 8 -1 8 C-0.67 5.36 -0.34 2.72 0 0 Z " fill="#F2AE1E" transform="translate(927,966)"/>
<path d="M0 0 C1.2065625 0.0309375 1.2065625 0.0309375 2.4375 0.0625 C2.48004356 2.06204746 2.47830783 4.06291636 2.4375 6.0625 C1.4375 7.0625 1.4375 7.0625 -1.125 7.125 C-2.3315625 7.0940625 -2.3315625 7.0940625 -3.5625 7.0625 C-3.60504356 5.06295254 -3.60330783 3.06208364 -3.5625 1.0625 C-2.5625 0.0625 -2.5625 0.0625 0 0 Z " fill="#E2AA23" transform="translate(951.5625,963.9375)"/>
<path d="M0 0 C0.93065133 2.60582371 1.14917407 3.64198224 0.0625 6.25 C-0.4634375 7.11625 -0.4634375 7.11625 -1 8 C-1.66 8 -2.32 8 -3 8 C-3.66 12.29 -4.32 16.58 -5 21 C-5.33 21 -5.66 21 -6 21 C-6 17.37 -6 13.74 -6 10 C-5.34 10 -4.68 10 -4 10 C-4.0825 9.278125 -4.165 8.55625 -4.25 7.8125 C-3.92573441 4.16451206 -2.42680413 2.65431702 0 0 Z " fill="#F9EFBC" transform="translate(426,670)"/>
<path d="M0 0 C2.25245881 2.68841859 3.88213958 4.64641875 5 8 C1.21812119 9.83691257 -0.94568308 10.15837626 -5 9 C-5 8.34 -5 7.68 -5 7 C-4.01 7 -3.02 7 -2 7 C-1.34 4.69 -0.68 2.38 0 0 Z " fill="#E8A311" transform="translate(849,966)"/>
<path d="M0 0 C4.56454251 0.54339792 7.9728176 1.79463821 12 4 C12 6.31 12 8.62 12 11 C10.88625 9.8553125 10.88625 9.8553125 9.75 8.6875 C7.176446 6.04428801 7.176446 6.04428801 4.6875 4.3125 C4.130625 3.879375 3.57375 3.44625 3 3 C3 2.34 3 1.68 3 1 C2.01 0.67 1.02 0.34 0 0 Z " fill="#EBAF1C" transform="translate(856,357)"/>
<path d="M0 0 C1.2065625 0.0309375 1.2065625 0.0309375 2.4375 0.0625 C2.1075 2.3725 1.7775 4.6825 1.4375 7.0625 C-0.2125 6.7325 -1.8625 6.4025 -3.5625 6.0625 C-3.605221 4.39638095 -3.60313832 2.72867115 -3.5625 1.0625 C-2.5625 0.0625 -2.5625 0.0625 0 0 Z " fill="#E3A521" transform="translate(864.5625,963.9375)"/>
<path d="M0 0 C0.66 0 1.32 0 2 0 C2 0.66 2 1.32 2 2 C2.99 2 3.98 2 5 2 C5 2.66 5 3.32 5 4 C4.01 4 3.02 4 2 4 C2 6.31 2 8.62 2 11 C2.99 11 3.98 11 5 11 C5 11.66 5 12.32 5 13 C2.525 12.01 2.525 12.01 0 11 C0 8.69 0 6.38 0 4 C-0.66 4 -1.32 4 -2 4 C-2 3.34 -2 2.68 -2 2 C-1.34 2 -0.68 2 0 2 C0 1.34 0 0.68 0 0 Z " fill="#F3D688" transform="translate(959,960)"/>
<path d="M0 0 C0 0.66 0 1.32 0 2 C-2.95670218 3.00486895 -5.91561577 4.00306024 -8.875 5 C-9.71675781 5.28617188 -10.55851563 5.57234375 -11.42578125 5.8671875 C-12.23144531 6.13789062 -13.03710938 6.40859375 -13.8671875 6.6875 C-14.61081543 6.93886719 -15.35444336 7.19023438 -16.12060547 7.44921875 C-18 8 -18 8 -20 8 C-20 7.34 -20 6.68 -20 6 C-16.36576791 3.67409146 -13.22911669 3.83734167 -9 4 C-8.67 3.01 -8.34 2.02 -8 1 C-2.25 0 -2.25 0 0 0 Z " fill="#EDC764" transform="translate(788,680)"/>
<path d="M0 0 C2.31 0 4.62 0 7 0 C4.19033482 2.13124944 1.34662302 4.19393854 -1.5625 6.1875 C-2.32691406 6.71730469 -3.09132812 7.24710937 -3.87890625 7.79296875 C-6 9 -6 9 -9 9 C-8.34 8.67 -7.68 8.34 -7 8 C-7 7.01 -7 6.02 -7 5 C-6.01 4.67 -5.02 4.34 -4 4 C-3.67 3.34 -3.34 2.68 -3 2 C-2.34 2 -1.68 2 -1 2 C-0.67 1.34 -0.34 0.68 0 0 Z " fill="#ECAF24" transform="translate(193,350)"/>
<path d="M0 0 C1.60725635 3.21451269 1.05748185 6.43612536 1 10 C0.01 10 -0.98 10 -2 10 C-2 7.03 -2 4.06 -2 1 C-3.32 0.67 -4.64 0.34 -6 0 C-3 -1 -3 -1 0 0 Z " fill="#EFC870" transform="translate(975,963)"/>
<path d="M0 0 C1.73030291 0.28484846 3.45920714 0.57819938 5.1875 0.875 C6.15042969 1.03742187 7.11335937 1.19984375 8.10546875 1.3671875 C10.91032604 1.98039517 13.37224747 2.85666343 16 4 C16 4.66 16 5.32 16 6 C15.360625 5.855625 14.72125 5.71125 14.0625 5.5625 C11.14565695 4.96556674 11.14565695 4.96556674 8.734375 4.8515625 C7.93515625 4.79742188 7.1359375 4.74328125 6.3125 4.6875 C5.54550781 4.65011719 4.77851562 4.61273437 3.98828125 4.57421875 C2 4 2 4 0.73046875 1.95703125 C0.48941406 1.31121094 0.24835938 0.66539062 0 0 Z " fill="#E8AF27" transform="translate(509,740)"/>
<path d="M0 0 C2.29633824 3.44450737 2.54016485 5.93812283 3 10 C2.34 10 1.68 10 1 10 C-0.5078125 8.03125 -0.5078125 8.03125 -2.125 5.5 C-2.66382813 4.6646875 -3.20265625 3.829375 -3.7578125 2.96875 C-4.16773438 2.3190625 -4.57765625 1.669375 -5 1 C-3.35 0.67 -1.7 0.34 0 0 Z " fill="#FAF3D6" transform="translate(781,432)"/>
<path d="M0 0 C0.66 0 1.32 0 2 0 C4.1519437 3.22791555 4.20086443 4.28400809 4 8 C4.66 8 5.32 8 6 8 C6 10.64 6 13.28 6 16 C4.08614468 13.12921701 3.03567048 10.66588344 1.875 7.4375 C1.52179688 6.46683594 1.16859375 5.49617188 0.8046875 4.49609375 C0 2 0 2 0 0 Z " fill="#E8BB49" transform="translate(271,376)"/>
<path d="M0 0 C3.96 0.33 7.92 0.66 12 1 C12.66 2.65 13.32 4.3 14 6 C8.31953056 5.05944297 4.27575688 4.13782924 0 0 Z " fill="#EEB22C" transform="translate(476,676)"/>
<path d="M0 0 C1.65 0.33 3.3 0.66 5 1 C5 1.66 5 2.32 5 3 C5.66 3.66 6.32 4.32 7 5 C5.04196493 5.05389087 3.08351091 5.09274217 1.125 5.125 C0.03445313 5.14820313 -1.05609375 5.17140625 -2.1796875 5.1953125 C-5 5 -5 5 -7 3 C-5.5459375 2.814375 -5.5459375 2.814375 -4.0625 2.625 C-2.5465625 2.315625 -2.5465625 2.315625 -1 2 C-0.67 1.34 -0.34 0.68 0 0 Z " fill="#E9A515" transform="translate(957,971)"/>
<path d="M0 0 C0.99 0.33 1.98 0.66 3 1 C2.67 5.62 2.34 10.24 2 15 C1.34 15 0.68 15 0 15 C0 10.05 0 5.1 0 0 Z " fill="#FADC91" transform="translate(844,957)"/>
<path d="M0 0 C0.33 0 0.66 0 1 0 C1 1.65 1 3.3 1 5 C2.65 5 4.3 5 6 5 C6 5.33 6 5.66 6 6 C4.35 6 2.7 6 1 6 C1 9.3 1 12.6 1 16 C0.34 16 -0.32 16 -1 16 C-1.02725341 14.2709226 -1.04650987 12.54171824 -1.0625 10.8125 C-1.07410156 9.84957031 -1.08570313 8.88664063 -1.09765625 7.89453125 C-1.00486622 5.14423487 -0.62111685 2.67520409 0 0 Z " fill="#FADA84" transform="translate(880,957)"/>
<path d="M0 0 C3.3 0 6.6 0 10 0 C10 0.66 10 1.32 10 2 C7.36 2 4.72 2 2 2 C2 2.66 2 3.32 2 4 C2.66 4.33 3.32 4.66 4 5 C2.35 5 0.7 5 -1 5 C-0.67 3.35 -0.34 1.7 0 0 Z " fill="#996D11" transform="translate(930,959)"/>
<path d="M0 0 C0.66 0 1.32 0 2 0 C2.1875 2.875 2.1875 2.875 2 6 C-1.08888522 8.05925681 -1.70935927 8.2390374 -5.1875 8.125 C-7.0746875 8.063125 -7.0746875 8.063125 -9 8 C-9 7.34 -9 6.68 -9 6 C-6.36 5.67 -3.72 5.34 -1 5 C-0.67 3.35 -0.34 1.7 0 0 Z " fill="#F7DA8D" transform="translate(937,965)"/>
<path d="M0 0 C3.8063457 0.67170806 7.35206816 1.72746564 11 3 C11 3.66 11 4.32 11 5 C11.66 5 12.32 5 13 5 C13 5.66 13 6.32 13 7 C8.76916309 5.69045524 4.872603 4.16145284 1 2 C0.67 1.34 0.34 0.68 0 0 Z " fill="#FBF4CC" transform="translate(439,709)"/>
<path d="M0 0 C1.76923828 0.04060547 1.76923828 0.04060547 3.57421875 0.08203125 C4.47785156 0.11683594 5.38148438 0.15164063 6.3125 0.1875 C0.73278161 3.02347257 -3.46227369 3.29125377 -9.6875 3.1875 C-6.99455929 -0.5165087 -4.35133403 -0.12924755 0 0 Z " fill="#E8B029" transform="translate(713.6875,700.8125)"/>
<path d="M0 0 C-0.66 1.32 -1.32 2.64 -2 4 C-5.63 4 -9.26 4 -13 4 C-10.56272708 2.37515139 -8.62713877 1.34310925 -5.9375 0.3125 C-5.24527344 0.04050781 -4.55304687 -0.23148438 -3.83984375 -0.51171875 C-2 -1 -2 -1 0 0 Z " fill="#F9EFC0" transform="translate(767,689)"/>
<path d="M0 0 C0.66 0 1.32 0 2 0 C1.34 2.64 0.68 5.28 0 8 C-0.66 8 -1.32 8 -2 8 C-1.67 12.29 -1.34 16.58 -1 21 C-1.66 20.67 -2.32 20.34 -3 20 C-3.08165496 17.79229195 -3.13948488 15.58369575 -3.1875 13.375 C-3.23970703 11.53035156 -3.23970703 11.53035156 -3.29296875 9.6484375 C-2.9787947 5.73592336 -1.96906533 3.35929782 0 0 Z " fill="#E9B83E" transform="translate(422,672)"/>
<path d="M0 0 C1.32 0.33 2.64 0.66 4 1 C2.625 2.5 2.625 2.5 1 4 C0.34 4 -0.32 4 -1 4 C-1 4.66 -1 5.32 -1 6 C-3.3125 8.1875 -3.3125 8.1875 -6 10 C-6.99 9.67 -7.98 9.34 -9 9 C-8.01 8.34 -7.02 7.68 -6 7 C-4.80767387 4.94996045 -4.80767387 4.94996045 -4 3 C-2.68 3 -1.36 3 0 3 C0 2.01 0 1.02 0 0 Z " fill="#F8F3C5" transform="translate(257,442)"/>
<path d="M0 0 C0.6875 1.8125 0.6875 1.8125 1 4 C-0.0625 5.4375 -0.0625 5.4375 -2 7 C-2.4846875 7.42796875 -2.969375 7.8559375 -3.46875 8.296875 C-7.7127809 12 -7.7127809 12 -10 12 C-10 11.34 -10 10.68 -10 10 C-8.34997172 8.64613064 -6.6825613 7.31321858 -5 6 C-4.67 5.34 -4.34 4.68 -4 4 C-3.34 4 -2.68 4 -2 4 C-1.34 2.68 -0.68 1.36 0 0 Z " fill="#EAB947" transform="translate(266,436)"/>
<path d="M0 0 C4.875 4.625 4.875 4.625 6 8 C6.66 8 7.32 8 8 8 C9.625 10.5 9.625 10.5 11 13 C8.6875 12.875 8.6875 12.875 6 12 C4.3125 9 4.3125 9 3 6 C2.34 5.67 1.68 5.34 1 5 C0.375 2.4375 0.375 2.4375 0 0 Z " fill="#EAAF31" transform="translate(776,434)"/>
<path d="M0 0 C3.81300782 3.2870757 5.22972246 6.39727838 7 11 C6.34 11 5.68 11 5 11 C5 10.01 5 9.02 5 8 C3.68 8 2.36 8 1 8 C-1 5 -1 5 -0.625 2.3125 C-0.41875 1.549375 -0.2125 0.78625 0 0 Z " fill="#F7EFC6" transform="translate(265,368)"/>
<path d="M0 0 C0.66 0 1.32 0 2 0 C2 0.66 2 1.32 2 2 C2.99 2 3.98 2 5 2 C5 2.66 5 3.32 5 4 C5.598125 4.2475 6.19625 4.495 6.8125 4.75 C9.28647521 6.16370012 10.43370255 7.65055383 12 10 C10.35 10 8.7 10 7 10 C7 8.68 7 7.36 7 6 C6.21625 5.938125 5.4325 5.87625 4.625 5.8125 C3.75875 5.544375 2.8925 5.27625 2 5 C0.6875 2.4375 0.6875 2.4375 0 0 Z " fill="#F8EBBF" transform="translate(854,356)"/>
<path d="M0 0 C0.97582031 0.00902344 1.95164062 0.01804687 2.95703125 0.02734375 C3.69308594 0.03894531 4.42914062 0.05054688 5.1875 0.0625 C5.1875 0.3925 5.1875 0.7225 5.1875 1.0625 C-0.38317277 2.65412079 -5.02351581 3.26924944 -10.8125 3.0625 C-10.8125 2.4025 -10.8125 1.7425 -10.8125 1.0625 C-7.13862505 0.20951624 -3.7677607 -0.04539471 0 0 Z " fill="#E6AF2C" transform="translate(698.8125,703.9375)"/>
<path d="M0 0 C-5.28 2.31 -10.56 4.62 -16 7 C-16 6.34 -16 5.68 -16 5 C-14.68 4.67 -13.36 4.34 -12 4 C-12 3.34 -12 2.68 -12 2 C-10.68 2 -9.36 2 -8 2 C-8 1.34 -8 0.68 -8 0 C-4.63458162 -1.08174162 -3.70152678 -0.92538169 0 0 Z " fill="#E8AE2A" transform="translate(824,665)"/>
<path d="M0 0 C0.33 0 0.66 0 1 0 C1.02705729 1.77074917 1.04642195 3.54161711 1.0625 5.3125 C1.07410156 6.29863281 1.08570313 7.28476562 1.09765625 8.30078125 C1 11 1 11 0 14 C-0.66 14 -1.32 14 -2 14 C-3.81975482 8.87160006 -1.8599099 4.82315618 0 0 Z " fill="#FBF2CD" transform="translate(877,410)"/>
<path d="M0 0 C0.66 0 1.32 0 2 0 C2.25 5.625 2.25 5.625 0 9 C-2.6015625 9.29296875 -2.6015625 9.29296875 -5.625 9.1875 C-7.12933594 9.14689453 -7.12933594 9.14689453 -8.6640625 9.10546875 C-9.43492187 9.07066406 -10.20578125 9.03585937 -11 9 C-11 8.67 -11 8.34 -11 8 C-7.7 7.34 -4.4 6.68 -1 6 C-0.67 4.02 -0.34 2.04 0 0 Z " fill="#886018" transform="translate(939,965)"/>
<path d="M0 0 C0 0.66 0 1.32 0 2 C-1.61992165 2.86375896 -3.24611861 3.71575854 -4.875 4.5625 C-6.23238281 5.27599609 -6.23238281 5.27599609 -7.6171875 6.00390625 C-8.40351562 6.33261719 -9.18984375 6.66132812 -10 7 C-10.66 6.67 -11.32 6.34 -12 6 C-11.67 5.34 -11.34 4.68 -11 4 C-10.01 4 -9.02 4 -8 4 C-7.67 3.01 -7.34 2.02 -7 1 C-4 0 -4 0 0 0 Z " fill="#FBF6D5" transform="translate(866,693)"/>
<path d="M0 0 C1.45903258 0.30921884 2.91720722 0.62248799 4.375 0.9375 C5.18710937 1.11152344 5.99921875 1.28554688 6.8359375 1.46484375 C9 2 9 2 11 3 C11 3.66 11 4.32 11 5 C9.54119891 4.85892253 8.08296449 4.71197585 6.625 4.5625 C5.40683594 4.44068359 5.40683594 4.44068359 4.1640625 4.31640625 C2 4 2 4 0 3 C0 2.01 0 1.02 0 0 Z " fill="#F8EDBF" transform="translate(843,351)"/>
<path d="M0 0 C0.99 0 1.98 0 3 0 C3 2.31 3 4.62 3 7 C3.66 7 4.32 7 5 7 C5 7.66 5 8.32 5 9 C3.35 8.67 1.7 8.34 0 8 C0 5.36 0 2.72 0 0 Z " fill="#EAA511" transform="translate(970,966)"/>
<path d="M0 0 C3.39675174 4.52900232 3.39675174 4.52900232 2.8125 8.6875 C2.71582031 9.47511719 2.61914062 10.26273438 2.51953125 11.07421875 C2.34808594 11.70972656 2.17664063 12.34523438 2 13 C1.01 13.495 1.01 13.495 0 14 C0 9.38 0 4.76 0 0 Z " fill="#90651E" transform="translate(846,960)"/>
<path d="M0 0 C0 0.66 0 1.32 0 2 C-1.98 2.33 -3.96 2.66 -6 3 C-6 3.66 -6 4.32 -6 5 C-9.3 5 -12.6 5 -16 5 C-12.77208445 2.8480563 -11.71599191 2.79913557 -8 3 C-8 2.34 -8 1.68 -8 1 C-5.23735711 0.40267181 -2.83967231 0 0 0 Z " fill="#E8B133" transform="translate(760,739)"/>
<path d="M0 0 C0.66 0.33 1.32 0.66 2 1 C0.02 1.99 0.02 1.99 -2 3 C-2 3.66 -2 4.32 -2 5 C-3.32 5 -4.64 5 -6 5 C-6 5.66 -6 6.32 -6 7 C-7.98 7 -9.96 7 -12 7 C-10.8125 5.5 -10.8125 5.5 -9 4 C-6.3125 3.8125 -6.3125 3.8125 -4 4 C-4 3.34 -4 2.68 -4 2 C-2.125 0.9375 -2.125 0.9375 0 0 Z " fill="#EDC154" transform="translate(838,708)"/>
<path d="M0 0 C0 0.99 0 1.98 0 3 C-1.98 3 -3.96 3 -6 3 C-6 3.66 -6 4.32 -6 5 C-7.96466413 6.06775224 -9.96855359 7.06553465 -12 8 C-12.66 7.67 -13.32 7.34 -14 7 C-12.68 6.67 -11.36 6.34 -10 6 C-10 5.34 -10 4.68 -10 4 C-8.71086513 3.32845067 -7.41859796 2.66291141 -6.125 2 C-5.40570312 1.62875 -4.68640625 1.2575 -3.9453125 0.875 C-2 0 -2 0 0 0 Z " fill="#F5EAAE" transform="translate(842,656)"/>
<path d="M0 0 C0.66 0.33 1.32 0.66 2 1 C-1.26503938 4.94525591 -5.06518395 6.85708806 -10 8 C-10.66 7.67 -11.32 7.34 -12 7 C-10.04754815 5.80285445 -8.08785003 4.61751926 -6.125 3.4375 C-5.03445313 2.77621094 -3.94390625 2.11492187 -2.8203125 1.43359375 C-1.88960937 0.96050781 -0.95890625 0.48742187 0 0 Z " fill="#EABF5A" transform="translate(856,448)"/>
<path d="M0 0 C4.03384128 2.07143201 5.92856799 3.96615872 8 8 C4.65902615 7.40339753 2.45699871 6.36924875 0 4 C0 2.68 0 1.36 0 0 Z " fill="#EBB338" transform="translate(177,439)"/>
<path d="M0 0 C0 2 0 2 -1.5 4 C-4.89059279 6.71247423 -7.76074985 7.15214997 -12 8 C-4.43243243 0 -4.43243243 0 0 0 Z " fill="#FAF0C4" transform="translate(198,352)"/>
<path d="M0 0 C0.99 1.485 0.99 1.485 2 3 C4.05925139 3.72382467 4.05925139 3.72382467 6 4 C6.33 3.01 6.66 2.02 7 1 C7.66 1.33 8.32 1.66 9 2 C9 2.99 9 3.98 9 5 C6.26752652 6.36623674 4.01801098 6.128426 1 6 C0 5 0 5 -0.0625 2.4375 C-0.041875 1.633125 -0.02125 0.82875 0 0 Z " fill="#E9C979" transform="translate(860,967)"/>
<path d="M0 0 C0.66 0 1.32 0 2 0 C2.33 1.32 2.66 2.64 3 4 C3.66 4 4.32 4 5 4 C5.103125 4.61875 5.20625 5.2375 5.3125 5.875 C5.87525373 8.36526484 5.87525373 8.36526484 9 10 C8.67 10.66 8.34 11.32 8 12 C3.125 8.375 3.125 8.375 2 5 C1.34 4.67 0.68 4.34 0 4 C0 2.68 0 1.36 0 0 Z " fill="#F9EFBB" transform="translate(421,692)"/>
<path d="M0 0 C-1 1 -1 1 -3.5625 1.0625 C-4.7690625 1.0315625 -4.7690625 1.0315625 -6 1 C-6 1.66 -6 2.32 -6 3 C-9.50776784 4.60355101 -12.14354879 5.22036864 -16 5 C-12.93882432 2.37613513 -12.26826873 2 -8 2 C-8 1.34 -8 0.68 -8 0 C-2.25 -1.125 -2.25 -1.125 0 0 Z " fill="#FAECB5" transform="translate(248,453)"/>
<path d="M0 0 C0.66 0 1.32 0 2 0 C0.50723624 5.39691512 -1.19695845 10.69905784 -3 16 C-3.33 16 -3.66 16 -4 16 C-3.67 12.37 -3.34 8.74 -3 5 C-2.34 5 -1.68 5 -1 5 C-0.67 3.35 -0.34 1.7 0 0 Z " fill="#E4B63E" transform="translate(772,376)"/>
<path d="M0 0 C2.31 0 4.62 0 7 0 C5.8141763 3.37503669 4.72426311 5.64722731 2 8 C1.34 5.36 0.68 2.72 0 0 Z " fill="#F1AB17" transform="translate(169,368)"/>
<path d="M0 0 C5.07612318 -0.61528766 7.82982006 1.38341651 12 4 C12 4.66 12 5.32 12 6 C10.37433394 5.52309796 8.74948689 5.04340334 7.125 4.5625 C6.22007812 4.29566406 5.31515625 4.02882813 4.3828125 3.75390625 C2 3 2 3 0 2 C0 1.34 0 0.68 0 0 Z " fill="#E5B63D" transform="translate(240,349)"/>
<path d="M0 0 C3.3 0 6.6 0 10 0 C11.2077558 3.62326739 10.54311128 4.64146369 9 8 C8.67 8 8.34 8 8 8 C7.34 6.02 6.68 4.04 6 2 C3.03 1.505 3.03 1.505 0 1 C0 0.67 0 0.34 0 0 Z " fill="#DBA127" transform="translate(861,961)"/>
<path d="M0 0 C8 1 8 1 16 2 C16 2.33 16 2.66 16 3 C12.04 3.66 8.08 4.32 4 5 C4 3.68 4 2.36 4 1 C2.68 0.67 1.36 0.34 0 0 Z " fill="#FBF1C9" transform="translate(552,704)"/>
<path d="M0 0 C0.598125 0.226875 1.19625 0.45375 1.8125 0.6875 C1.8125 1.6775 1.8125 2.6675 1.8125 3.6875 C-0.8275 4.3475 -3.4675 5.0075 -6.1875 5.6875 C-5.02477055 2.19931165 -4.06615469 -0.58087924 0 0 Z " fill="#F2AD12" transform="translate(790.1875,675.3125)"/>
<path d="M0 0 C3.63 0 7.26 0 11 0 C10.67 1.32 10.34 2.64 10 4 C6.7 3.01 3.4 2.02 0 1 C0 0.67 0 0.34 0 0 Z " fill="#EFAF1B" transform="translate(445,662)"/>
<path d="M0 0 C2.64 0.33 5.28 0.66 8 1 C8 1.66 8 2.32 8 3 C4.91190305 4.76462683 3.76687864 5 0 5 C0 3.35 0 1.7 0 0 Z " fill="#EDB22D" transform="translate(824,659)"/>
<path d="M0 0 C1.98 0 3.96 0 6 0 C5.01 0.66 4.02 1.32 3 2 C2.42251197 3.96361864 2.42251197 3.96361864 2.3125 6.125 C2.209375 7.40375 2.10625 8.6825 2 10 C1.34 10 0.68 10 0 10 C0 6.7 0 3.4 0 0 Z " fill="#8F6612" transform="translate(905,964)"/>
<path d="M0 0 C-0.33 1.32 -0.66 2.64 -1 4 C-2.98 4 -4.96 4 -7 4 C-6.6875 2.0625 -6.6875 2.0625 -6 0 C-3 -1 -3 -1 0 0 Z " fill="#B8944D" transform="translate(900,963)"/>
<path d="M0 0 C0.53625 0.226875 1.0725 0.45375 1.625 0.6875 C0.965 0.6875 0.305 0.6875 -0.375 0.6875 C-0.375 1.3475 -0.375 2.0075 -0.375 2.6875 C-4.55237474 4.27888085 -7.90660785 4.90028058 -12.375 4.6875 C-11.04166667 4.02083333 -9.70833333 3.35416667 -8.375 2.6875 C-7.385 2.130625 -6.395 1.57375 -5.375 1 C-2.375 -0.3125 -2.375 -0.3125 0 0 Z " fill="#E9AD2A" transform="translate(788.375,730.3125)"/>
<path d="M0 0 C0.66 0 1.32 0 2 0 C2 1.32 2 2.64 2 4 C1.360625 4.28875 0.72125 4.5775 0.0625 4.875 C-2.15206079 5.82823451 -2.15206079 5.82823451 -3 8 C-4.32 7.67 -5.64 7.34 -7 7 C-6.21625 6.401875 -5.4325 5.80375 -4.625 5.1875 C-1.85425677 3.08914751 -1.85425677 3.08914751 0 0 Z " fill="#E9B843" transform="translate(865,440)"/>
<path d="M0 0 C1.65 0 3.3 0 5 0 C4.34 0.66 3.68 1.32 3 2 C2.54188325 3.97235333 2.54188325 3.97235333 2.375 6.125 C2.25125 7.40375 2.1275 8.6825 2 10 C1.34 10 0.68 10 0 10 C0 6.7 0 3.4 0 0 Z " fill="#916415" transform="translate(873,964)"/>
<path d="M0 0 C0 0.66 0 1.32 0 2 C-1.7015625 2.433125 -1.7015625 2.433125 -3.4375 2.875 C-4.613125 3.24625 -5.78875 3.6175 -7 4 C-7.33 4.66 -7.66 5.32 -8 6 C-8.66 5.67 -9.32 5.34 -10 5 C-9.625 3.0625 -9.625 3.0625 -9 1 C-6.04335481 -0.4783226 -3.25770263 -0.06032783 0 0 Z " fill="#EEBC4C" transform="translate(925,965)"/>
<path d="M0 0 C2.64 0 5.28 0 8 0 C8 1.32 8 2.64 8 4 C5.36 3.34 2.72 2.68 0 2 C0 1.34 0 0.68 0 0 Z " fill="#EEAC14" transform="translate(932,961)"/>
<path d="M0 0 C0 0.33 0 0.66 0 1 C-7.92 2.485 -7.92 2.485 -16 4 C-16 3.34 -16 2.68 -16 2 C-10.51324804 0.13216954 -5.77807024 -0.2358396 0 0 Z " fill="#F8E4A9" transform="translate(752,741)"/>
<path d="M0 0 C3.63 0 7.26 0 11 0 C11 0.99 11 1.98 11 3 C9.741875 2.87625 8.48375 2.7525 7.1875 2.625 C6.12595703 2.52058594 6.12595703 2.52058594 5.04296875 2.4140625 C3 2 3 2 0 0 Z " fill="#ECB02E" transform="translate(533,698)"/>
<path d="M0 0 C0.66 0 1.32 0 2 0 C2 0.99 2 1.98 2 3 C-2.64203897 5.53309233 -6.65155992 7.46515599 -12 8 C-12 7.34 -12 6.68 -12 6 C-11.07767578 5.72736328 -11.07767578 5.72736328 -10.13671875 5.44921875 C-8.92435547 5.07216797 -8.92435547 5.07216797 -7.6875 4.6875 C-6.48673828 4.32205078 -6.48673828 4.32205078 -5.26171875 3.94921875 C-2.88593789 2.95212938 -1.75402699 1.83632738 0 0 Z " fill="#E8B63E" transform="translate(254,448)"/>
<path d="M0 0 C0.33 0 0.66 0 1 0 C1 1.98 1 3.96 1 6 C0.34 6 -0.32 6 -1 6 C-1.33 6.66 -1.66 7.32 -2 8 C-2.99 7.34 -3.98 6.68 -5 6 C-3.625 4 -3.625 4 -2 2 C-1.34 2 -0.68 2 0 2 C0 1.34 0 0.68 0 0 Z " fill="#F9EECA" transform="translate(781,366)"/>
<path d="M0 0 C0.33 1.32 0.66 2.64 1 4 C-1.97 6.475 -1.97 6.475 -5 9 C-5 5.39222485 -4.0095568 3.93704456 -2 1 C-1.34 0.67 -0.68 0.34 0 0 Z " fill="#F9ECBC" transform="translate(178,367)"/>
<path d="M0 0 C0.33 0 0.66 0 1 0 C1 1.65 1 3.3 1 5 C-1.97 5 -4.94 5 -8 5 C-8 4.01 -8 3.02 -8 2 C-5.36 2.33 -2.72 2.66 0 3 C0 2.01 0 1.02 0 0 Z " fill="#906F21" transform="translate(901,966)"/>
<path d="M0 0 C2 1 4 2 6 3 C6 3.66 6 4.32 6 5 C6.66 5.33 7.32 5.66 8 6 C2.25 5.125 2.25 5.125 0 4 C0 2.68 0 1.36 0 0 Z " fill="#E8B12E" transform="translate(426,702)"/>
<path d="M0 0 C0 0.99 0 1.98 0 3 C-3.3 2.67 -6.6 2.34 -10 2 C-7.20652751 -0.79347249 -3.65536205 -1.82768103 0 0 Z " fill="#FAFBEB" transform="translate(440,666)"/>
<path d="M0 0 C0 2.64 0 5.28 0 8 C-0.33 7.34 -0.66 6.68 -1 6 C-1.66 6 -2.32 6 -3 6 C-4.625 3.5 -4.625 3.5 -6 1 C-3.92446352 0.4465236 -2.15634036 0 0 0 Z " fill="#EEB128" transform="translate(878,656)"/>
<path d="M0 0 C0.99 0.33 1.98 0.66 3 1 C3.6875 3.0625 3.6875 3.0625 4 5 C3.34 5 2.68 5 2 5 C2 6.98 2 8.96 2 11 C1.67 11 1.34 11 1 11 C0.67 7.37 0.34 3.74 0 0 Z " fill="#FCF8DD" transform="translate(770,413)"/>
<path d="M0 0 C2.64465038 3.1254959 3.84414715 6.08788267 5 10 C4.01 10 3.02 10 2 10 C0.68373308 6.38026598 0 3.90432869 0 0 Z " fill="#E8B430" transform="translate(771,424)"/>
<path d="M0 0 C2.7558573 4.13378595 3.10756445 6.05203546 3 11 C2.34 11 1.68 11 1 11 C-0.28317892 7.15046324 -0.06643637 4.05261865 0 0 Z " fill="#E9B439" transform="translate(165,413)"/>
<path d="M0 0 C3.50281042 4.67041389 3.5344992 6.41399038 4 12 C3.67 11.34 3.34 10.68 3 10 C2.34 10 1.68 10 1 10 C0.67 6.7 0.34 3.4 0 0 Z " fill="#FBEEC2" transform="translate(873,376)"/>
<path d="M0 0 C1.32 0 2.64 0 4 0 C3 3 3 3 0 5 C-0.66 5.99 -1.32 6.98 -2 8 C-2.125 5.125 -2.125 5.125 -2 2 C-1.34 1.34 -0.68 0.68 0 0 Z " fill="#FBF6DB" transform="translate(181,363)"/>
<path d="M0 0 C0 0.99 0 1.98 0 3 C-2.70879335 4.35439668 -5.00933268 4.06501451 -8 4 C-8 3.34 -8 2.68 -8 2 C-5.36 1.34 -2.72 0.68 0 0 Z " fill="#FBF4D1" transform="translate(804,351)"/>
<path d="M0 0 C1.258125 0.12375 2.51625 0.2475 3.8125 0.375 C4.87404297 0.47941406 4.87404297 0.47941406 5.95703125 0.5859375 C8 1 8 1 11 3 C8.36 3.33 5.72 3.66 3 4 C2.01 2.68 1.02 1.36 0 0 Z " fill="#FDF6DA" transform="translate(832,348)"/>
<path d="M0 0 C1.98 0 3.96 0 6 0 C5.1875 1.9375 5.1875 1.9375 4 4 C3.01 4.33 2.02 4.66 1 5 C0.67 3.35 0.34 1.7 0 0 Z " fill="#F7AC0A" transform="translate(826,715)"/>
<path d="M0 0 C2.31 0.33 4.62 0.66 7 1 C5.75 2.5 5.75 2.5 4 4 C2.68 4 1.36 4 0 4 C0 2.68 0 1.36 0 0 Z " fill="#F9F8E1" transform="translate(820,712)"/>
<path d="M0 0 C3.40312738 1.05875074 6.01353231 2.00902154 9 4 C9 4.66 9 5.32 9 6 C8.01 6 7.02 6 6 6 C6 5.34 6 4.68 6 4 C4.35 3.67 2.7 3.34 1 3 C0.67 2.01 0.34 1.02 0 0 Z " fill="#EAB129" transform="translate(434,708)"/>
<path d="M0 0 C1.60517097 0.08733576 3.20921662 0.19552224 4.8125 0.3125 C6.15248047 0.39951172 6.15248047 0.39951172 7.51953125 0.48828125 C10.30604 1.06313581 11.24135754 1.8206856 13 4 C11.39482903 3.91266424 9.79078338 3.80447776 8.1875 3.6875 C6.84751953 3.60048828 6.84751953 3.60048828 5.48046875 3.51171875 C2.69396 2.93686419 1.75864246 2.1793144 0 0 Z " fill="#F0AF29" transform="translate(456,666)"/>
<path d="M0 0 C1.32 1.32 2.64 2.64 4 4 C3.67 4.66 3.34 5.32 3 6 C2.34 6 1.68 6 1 6 C0.67 6.66 0.34 7.32 0 8 C-0.66 7.67 -1.32 7.34 -2 7 C-1.34 4.69 -0.68 2.38 0 0 Z " fill="#F1B225" transform="translate(276,416)"/>
<path d="M0 0 C2.44839588 3.67259383 4 6.54648201 4 11 C3.34 11 2.68 11 2 11 C1.47007308 9.54494642 0.9513211 8.08581873 0.4375 6.625 C0.14746094 5.81289063 -0.14257812 5.00078125 -0.44140625 4.1640625 C-1 2 -1 2 0 0 Z " fill="#FCF9D8" transform="translate(272,381)"/>
<path d="M0 0 C0.33 0.99 0.66 1.98 1 3 C1.66 3.33 2.32 3.66 3 4 C-1.75 8.875 -1.75 8.875 -4 10 C-4 8.02 -4 6.04 -4 4 C-2.68 4 -1.36 4 0 4 C0 2.68 0 1.36 0 0 Z " fill="#F0B437" transform="translate(181,358)"/>
<path d="M0 0 C0.66 0.33 1.32 0.66 2 1 C2 3.64 2 6.28 2 9 C1.01 9.33 0.02 9.66 -1 10 C-0.67 6.7 -0.34 3.4 0 0 Z " fill="#A36A08" transform="translate(976,965)"/>
<path d="M0 0 C1.65 0 3.3 0 5 0 C5 0.66 5 1.32 5 2 C4.01 2 3.02 2 2 2 C2 3.65 2 5.3 2 7 C1.34 7 0.68 7 0 7 C0 4.69 0 2.38 0 0 Z " fill="#936E1A" transform="translate(881,964)"/>
<path d="M0 0 C0.89332031 0.12761719 1.78664063 0.25523437 2.70703125 0.38671875 C3.60808594 0.50660156 4.50914062 0.62648438 5.4375 0.75 C6.12457031 0.85699219 6.81164062 0.96398437 7.51953125 1.07421875 C7.51953125 1.40421875 7.51953125 1.73421875 7.51953125 2.07421875 C4.87953125 2.07421875 2.23953125 2.07421875 -0.48046875 2.07421875 C-0.48046875 2.73421875 -0.48046875 3.39421875 -0.48046875 4.07421875 C-2.13046875 3.74421875 -3.78046875 3.41421875 -5.48046875 3.07421875 C-3.68981165 0.76004728 -2.99175075 0.08951695 0 0 Z " fill="#F1AD1B" transform="translate(904.48046875,959.92578125)"/>
<path d="M0 0 C-0.99 0.495 -0.99 0.495 -2 1 C-2 1.66 -2 2.32 -2 3 C-4.64 3.33 -7.28 3.66 -10 4 C-6.58908673 0.88145073 -4.68377325 -0.53528837 0 0 Z " fill="#EDBA46" transform="translate(800,726)"/>
<path d="M0 0 C-0.99 0.33 -1.98 0.66 -3 1 C-3 1.66 -3 2.32 -3 3 C-5.31 3.33 -7.62 3.66 -10 4 C-9.67 3.01 -9.34 2.02 -9 1 C-6.03421164 -0.16513114 -3.15436364 -0.08762121 0 0 Z " fill="#FDF7D5" transform="translate(837,709)"/>
<path d="M0 0 C1.9375 0.3125 1.9375 0.3125 4 1 C4.33 1.99 4.66 2.98 5 4 C2.69 3.67 0.38 3.34 -2 3 C-1.34 2.01 -0.68 1.02 0 0 Z " fill="#F4A914" transform="translate(840,708)"/>
<path d="M0 0 C0.33 0.66 0.66 1.32 1 2 C1.66 2 2.32 2 3 2 C4.06775224 3.96466413 5.06553465 5.96855359 6 8 C5.67 8.66 5.34 9.32 5 10 C0.07692308 5.69230769 0.07692308 5.69230769 -0.3125 2.1875 C-0.209375 1.465625 -0.10625 0.74375 0 0 Z " fill="#F8F4C6" transform="translate(866,366)"/>
<path d="M0 0 C0.66 0 1.32 0 2 0 C2.0825 1.11375 2.165 2.2275 2.25 3.375 C2.57873787 7.05753944 2.57873787 7.05753944 5.0625 8.4375 C5.701875 8.623125 6.34125 8.80875 7 9 C4.625 9.625 4.625 9.625 2 10 C0 8 0 8 -0.1953125 6.0546875 C-0.13020833 4.03645833 -0.06510417 2.01822917 0 0 Z " fill="#C89628" transform="translate(889,964)"/>
<path d="M0 0 C0.66 0 1.32 0 2 0 C2 1.65 2 3.3 2 5 C0.02 5 -1.96 5 -4 5 C-4.33 4.34 -4.66 3.68 -5 3 C-3.35 3 -1.7 3 0 3 C0 2.01 0 1.02 0 0 Z " fill="#EDCA7F" transform="translate(899,964)"/>
<path d="M0 0 C0.33 0 0.66 0 1 0 C1 1.65 1 3.3 1 5 C-0.98 5.99 -0.98 5.99 -3 7 C-3 5.35 -3 3.7 -3 2 C-2.01 2 -1.02 2 0 2 C0 1.34 0 0.68 0 0 Z " fill="#E5A727" transform="translate(886,964)"/>
<path d="M0 0 C0.99 0 1.98 0 3 0 C3 0.99 3 1.98 3 3 C4.65 3.33 6.3 3.66 8 4 C7.67 4.66 7.34 5.32 7 6 C4.69 5.34 2.38 4.68 0 4 C0 2.68 0 1.36 0 0 Z " fill="#C68F19" transform="translate(881,958)"/>
<path d="M0 0 C4.55384615 -0.36923077 4.55384615 -0.36923077 6.8125 1.5 C7.204375 1.995 7.59625 2.49 8 3 C5.36 3.33 2.72 3.66 0 4 C0 2.68 0 1.36 0 0 Z " fill="#FBF9E0" transform="translate(749,737)"/>
<path d="M0 0 C3.82097239 0.53069061 6.06171403 1.49701566 9 4 C6.69 4 4.38 4 2 4 C1.34 2.68 0.68 1.36 0 0 Z " fill="#FBF0C7" transform="translate(469,674)"/>
<path d="M0 0 C5.75 1.875 5.75 1.875 8 3 C8 3.99 8 4.98 8 6 C4.08597051 4.73058503 2.20927127 3.48832306 0 0 Z " fill="#F6DFA3" transform="translate(784,443)"/>
<path d="M0 0 C1.32 0 2.64 0 4 0 C4 0.66 4 1.32 4 2 C3.01 2.495 3.01 2.495 2 3 C1.67 3.99 1.34 4.98 1 6 C0.34 6 -0.32 6 -1 6 C-1.042721 4.33388095 -1.04063832 2.66617115 -1 1 C-0.67 0.67 -0.34 0.34 0 0 Z " fill="#866511" transform="translate(862,964)"/>
<path d="M0 0 C0 0.66 0 1.32 0 2 C-5.75 5 -5.75 5 -8 5 C-8 4.34 -8 3.68 -8 3 C-5.04518508 0.25624329 -4.22528092 0 0 0 Z " fill="#E7AD20" transform="translate(848,651)"/>
<path d="M0 0 C2.64 0.33 5.28 0.66 8 1 C8 1.66 8 2.32 8 3 C6.25 3.75 6.25 3.75 4 4 C1.75 2.0625 1.75 2.0625 0 0 Z " fill="#ECB339" transform="translate(200,456)"/>
<path d="M0 0 C3.37503669 1.1858237 5.64722731 2.27573689 8 5 C2.25 4.125 2.25 4.125 0 3 C0 2.01 0 1.02 0 0 Z " fill="#EAB537" transform="translate(792,450)"/>
<path d="M0 0 C0.66 0 1.32 0 2 0 C2.33 0.99 2.66 1.98 3 3 C3.66 3.33 4.32 3.66 5 4 C4.67 5.65 4.34 7.3 4 9 C3.67 8.01 3.34 7.02 3 6 C2.34 6 1.68 6 1 6 C0.67 4.02 0.34 2.04 0 0 Z " fill="#E9AF26" transform="translate(875,378)"/>
<path d="M0 0 C5.75 0.875 5.75 0.875 8 2 C7.67 3.32 7.34 4.64 7 6 C5 4.625 5 4.625 3 3 C3 2.34 3 1.68 3 1 C2.01 0.67 1.02 0.34 0 0 Z " fill="#EEB035" transform="translate(856,357)"/>
<path d="M0 0 C2.475 0.99 2.475 0.99 5 2 C4.0409375 2.1546875 4.0409375 2.1546875 3.0625 2.3125 C2.381875 2.539375 1.70125 2.76625 1 3 C0.67 3.99 0.34 4.98 0 6 C-1.32 5.67 -2.64 5.34 -4 5 C-3.01 5 -2.02 5 -1 5 C-1.33 4.01 -1.66 3.02 -2 2 C-1.34 1.34 -0.68 0.68 0 0 Z " fill="#F5EFD2" transform="translate(248,354)"/>
<path d="M0 0 C-2.31 1.65 -4.62 3.3 -7 5 C-7.33 4.34 -7.66 3.68 -8 3 C-7.34 3 -6.68 3 -6 3 C-6 2.01 -6 1.02 -6 0 C-3 -1 -3 -1 0 0 Z " fill="#E7B637" transform="translate(192,355)"/>
<path d="M0 0 C1.32 0 2.64 0 4 0 C4 0.66 4 1.32 4 2 C3.01 2 2.02 2 1 2 C1 3.32 1 4.64 1 6 C0.34 6 -0.32 6 -1 6 C-1.042721 4.33388095 -1.04063832 2.66617115 -1 1 C-0.67 0.67 -0.34 0.34 0 0 Z " fill="#825E11" transform="translate(949,964)"/>
<path d="M0 0 C2.625 0.375 2.625 0.375 5 1 C5 1.66 5 2.32 5 3 C2.625 3.625 2.625 3.625 0 4 C-0.66 3.34 -1.32 2.68 -2 2 C-1.34 1.34 -0.68 0.68 0 0 Z " fill="#F6B216" transform="translate(957,957)"/>
<path d="M0 0 C0 0.66 0 1.32 0 2 C0.99 2 1.98 2 3 2 C3 2.66 3 3.32 3 4 C-2.75 3.25 -2.75 3.25 -5 1 C-2 0 -2 0 0 0 Z " fill="#FAAB0E" transform="translate(733,747)"/>
<path d="M0 0 C2.31 0.33 4.62 0.66 7 1 C4.08235 2.9451 2.37462715 3.45276317 -1 4 C-0.67 2.68 -0.34 1.36 0 0 Z " fill="#FAF6D4" transform="translate(769,732)"/>
<path d="M0 0 C0 0.66 0 1.32 0 2 C-2.64 2.66 -5.28 3.32 -8 4 C-8 3.34 -8 2.68 -8 2 C-4.91190305 0.23537317 -3.76687864 0 0 0 Z " fill="#E9B947" transform="translate(776,684)"/>
<path d="M0 0 C3.465 1.98 3.465 1.98 7 4 C7 4.33 7 4.66 7 5 C5.02 5 3.04 5 1 5 C0.67 3.35 0.34 1.7 0 0 Z " fill="#ECAF26" transform="translate(185,447)"/>
</svg>
